<?xml version="1.0" standalone="no"?>
<!DOCTYPE svg PUBLIC "-//W3C//DTD SVG 20010904//EN"
 "http://www.w3.org/TR/2001/REC-SVG-20010904/DTD/svg10.dtd">
<svg version="1.0" xmlns="http://www.w3.org/2000/svg"
 width="784.000000pt" height="575.000000pt" viewBox="0 0 784.000000 575.000000"
 preserveAspectRatio="xMidYMid meet">

<g transform="translate(0.000000,575.000000) scale(0.100000,-0.100000)"
fill="#000000" stroke="none">
<path d="M1246 4809 c-34 -40 -35 -91 -1 -124 24 -25 30 -27 89 -29 26 -1 45
-21 155 -167 69 -92 201 -265 292 -385 91 -121 172 -230 179 -244 7 -14 28
-40 46 -58 19 -18 34 -40 34 -48 0 -9 10 -30 22 -47 18 -25 19 -29 5 -24 -10
4 -17 2 -17 -4 0 -7 9 -9 21 -6 15 4 30 -3 50 -23 30 -30 38 -60 17 -61 -7 0
-2 -4 10 -10 28 -11 24 -33 -6 -35 -20 -2 -20 -1 -2 3 29 6 14 23 -21 23 -18
0 -29 -5 -29 -14 0 -25 65 -37 86 -16 8 8 15 6 24 -5 13 -16 70 -21 70 -6 0 5
-7 16 -15 25 -8 8 -15 22 -15 30 0 9 -7 16 -15 16 -19 0 -65 50 -65 71 0 9
-22 39 -50 66 -27 27 -57 66 -65 86 -8 20 -26 44 -39 52 -13 9 -96 111 -184
228 -319 424 -395 522 -414 544 -19 20 -20 26 -8 66 10 38 9 49 -4 75 -32 62
-107 72 -150 21z"/>
<path d="M4345 4376 c-49 -49 -40 -122 18 -153 25 -13 37 -13 69 -3 38 11 41
10 96 -31 124 -94 478 -372 492 -387 8 -10 46 -39 83 -67 37 -27 100 -76 140
-108 40 -31 113 -88 164 -126 50 -39 94 -75 98 -81 14 -23 117 -91 131 -86 28
11 12 32 -66 86 -44 30 -80 58 -80 62 0 3 -40 36 -89 72 -49 35 -102 77 -117
92 -16 14 -46 38 -68 51 -21 14 -57 42 -80 63 -22 21 -66 55 -98 76 -31 22
-105 78 -165 125 -59 47 -169 133 -245 192 l-136 107 5 39 c5 35 2 44 -25 71
-39 39 -91 41 -127 6z"/>
<path d="M7245 4390 c-34 -13 -49 -40 -50 -89 l-1 -46 -149 -118 c-130 -101
-306 -237 -514 -395 -31 -23 -74 -57 -95 -75 -21 -17 -46 -36 -55 -41 -9 -5
-43 -32 -76 -60 -33 -29 -73 -60 -90 -70 -16 -11 -57 -42 -90 -71 -33 -28 -92
-75 -132 -103 -39 -29 -74 -59 -77 -68 -9 -22 -7 -61 2 -48 4 5 25 23 47 39
22 16 61 47 86 70 46 40 185 147 279 215 27 20 63 49 82 65 18 17 58 48 88 70
30 22 60 45 65 52 6 7 24 23 42 35 17 13 137 106 265 207 385 305 341 275 383
261 47 -15 90 1 111 43 42 80 -36 162 -121 127z"/>
<path d="M1043 4205 c-37 -16 -53 -42 -53 -85 0 -45 47 -90 94 -90 19 0 38 5
42 11 3 6 16 9 28 7 31 -6 619 -402 634 -427 7 -12 19 -21 26 -21 8 0 18 -5
22 -12 4 -7 3 -8 -4 -4 -7 4 -12 1 -12 -7 0 -10 7 -13 19 -10 26 7 69 -16 51
-27 -11 -7 -10 -11 1 -22 18 -17 39 -21 39 -8 0 6 -4 10 -10 10 -5 0 -10 5
-10 12 0 9 3 9 12 0 7 -7 18 -12 25 -12 19 0 126 -75 140 -99 10 -15 10 -21 0
-25 -7 -3 0 -3 15 0 20 5 30 2 34 -10 3 -9 14 -16 23 -16 22 0 121 -58 127
-74 3 -8 30 -30 59 -51 56 -38 80 -40 92 -8 4 10 11 22 17 26 7 6 4 7 -6 3
-18 -6 -105 33 -148 66 -14 11 -36 36 -49 56 -12 20 -20 29 -17 19 5 -15 3
-16 -15 -6 -20 10 -20 11 -2 25 13 10 14 14 3 12 -8 -2 -18 -7 -21 -11 -8 -11
-87 26 -124 57 -23 20 -26 25 -12 26 9 0 17 4 17 10 0 5 -6 7 -13 4 -8 -3 -20
2 -27 10 -7 9 -16 13 -20 11 -5 -3 -27 2 -49 11 -40 16 -71 50 -71 79 0 9 -7
18 -16 22 -9 3 -12 8 -5 12 6 4 7 12 0 21 -8 13 -12 11 -27 -8 -16 -20 -21
-22 -47 -12 -28 11 -582 376 -618 408 -10 9 -15 22 -12 30 12 31 -16 83 -51
98 -40 17 -41 17 -81 -1z m843 -573 c-8 -7 -46 19 -41 28 3 5 14 2 25 -7 11
-9 18 -19 16 -21z"/>
<path d="M2560 4092 c0 -12 19 -26 26 -19 2 2 -2 10 -11 17 -9 8 -15 8 -15 2z"/>
<path d="M2695 4090 c3 -5 -1 -10 -9 -10 -9 0 -13 -6 -10 -14 7 -19 31 -10 37
15 3 12 0 19 -10 19 -8 0 -11 -4 -8 -10z"/>
<path d="M2766 4078 c-8 -32 -7 -86 2 -91 4 -3 5 15 3 39 -2 36 0 43 12 38 12
-4 14 0 10 15 -7 27 -19 27 -27 -1z"/>
<path d="M2502 4050 c7 -10 14 -18 15 -16 6 6 -9 36 -18 36 -5 0 -4 -9 3 -20z"/>
<path d="M2865 4061 c-3 -5 -1 -12 5 -16 5 -3 10 1 10 9 0 18 -6 21 -15 7z"/>
<path d="M2393 4053 c-7 -3 -13 -9 -13 -15 0 -6 7 -8 15 -4 19 7 59 -30 49
-45 -4 -8 -10 -7 -16 2 -6 9 -7 1 -4 -25 2 -21 9 -43 15 -49 15 -15 14 -60 -1
-75 -7 -7 -8 -12 -2 -12 14 0 39 42 35 60 -2 9 5 6 18 -8 11 -13 26 -22 33
-19 10 4 10 6 1 6 -7 1 -13 7 -13 15 0 8 -7 16 -15 20 -11 4 -13 11 -5 30 7
20 6 24 -5 20 -14 -6 -35 24 -28 41 5 15 -49 64 -64 58z"/>
<path d="M2537 4040 c3 -11 7 -20 9 -20 2 0 4 9 4 20 0 11 -4 20 -9 20 -5 0
-7 -9 -4 -20z"/>
<path d="M2807 4039 c-10 -11 -15 -25 -11 -30 3 -6 12 2 20 17 18 34 13 40 -9
13z"/>
<path d="M2921 4022 c2 -30 3 -32 6 -9 3 21 10 27 30 27 32 0 27 7 -10 14 -26
4 -27 3 -26 -32z"/>
<path d="M2340 4030 c11 -20 30 -28 30 -12 0 11 -22 32 -32 32 -5 0 -4 -9 2
-20z"/>
<path d="M2230 3999 c-6 -11 -10 -28 -8 -37 2 -10 8 -1 15 21 12 41 10 48 -7
16z"/>
<path d="M2632 4000 c-15 -24 -35 -26 -56 -5 -17 17 -26 19 -26 6 0 -5 9 -13
20 -16 11 -3 20 -15 20 -26 0 -24 9 -24 27 -1 13 15 14 13 9 -18 -4 -28 -3
-31 5 -17 9 15 22 97 16 97 -1 0 -8 -9 -15 -20z"/>
<path d="M2251 3986 c-8 -10 -9 -16 -1 -21 5 -3 10 0 10 9 0 8 6 17 13 19 7 4
8 6 1 6 -6 1 -17 -5 -23 -13z"/>
<path d="M2836 3969 c-11 -10 -17 -21 -15 -24 7 -6 49 24 49 36 0 14 -13 10
-34 -12z"/>
<path d="M2785 3950 c-17 -32 -20 -55 -4 -27 6 9 14 15 18 12 5 -2 9 7 9 20 0
32 -4 31 -23 -5z"/>
<path d="M3070 3976 c0 -2 9 -6 20 -9 11 -3 20 -1 20 4 0 5 -9 9 -20 9 -11 0
-20 -2 -20 -4z"/>
<path d="M3101 3953 l-24 -23 24 -1 c22 0 23 -1 4 -9 -20 -8 -20 -9 1 -9 26
-1 50 42 31 56 -8 6 -20 1 -36 -14z"/>
<path d="M2556 3957 c3 -10 9 -15 12 -12 3 3 0 11 -7 18 -10 9 -11 8 -5 -6z"/>
<path d="M2386 3945 c4 -8 8 -15 10 -15 2 0 4 7 4 15 0 8 -4 15 -10 15 -5 0
-7 -7 -4 -15z"/>
<path d="M3010 3946 c0 -8 9 -22 21 -30 12 -8 18 -19 14 -26 -5 -9 -1 -9 16 1
l24 12 -22 10 c-13 5 -25 18 -28 28 -7 22 -25 25 -25 5z"/>
<path d="M2253 3943 c-20 -7 -16 -33 5 -27 14 5 15 4 2 -5 -11 -8 -18 -6 -29
7 -9 11 -11 12 -7 2 3 -8 9 -23 12 -32 4 -10 13 -18 20 -18 8 0 14 8 14 18 1
16 2 16 15 -2 8 -11 21 -16 30 -13 9 4 15 1 15 -8 0 -8 5 -15 10 -15 15 0 12
16 -5 34 -8 8 -15 19 -15 25 0 6 -5 11 -12 11 -6 0 -19 6 -27 14 -9 7 -22 11
-28 9z"/>
<path d="M2966 3935 c-3 -9 0 -15 10 -15 8 0 12 -4 9 -10 -3 -6 1 -7 9 -4 20
8 20 12 2 30 -18 18 -22 18 -30 -1z"/>
<path d="M2125 3931 c-3 -6 -15 -11 -26 -11 -10 0 -19 -4 -19 -10 0 -5 -5 -10
-11 -10 -5 0 -7 5 -4 10 3 6 2 10 -4 10 -19 0 -19 -15 0 -39 10 -13 19 -18 19
-12 0 6 12 17 28 25 15 8 23 15 17 16 -5 0 -3 4 5 10 8 5 12 12 8 15 -3 4 -9
2 -13 -4z"/>
<path d="M2650 3930 c0 -6 8 -14 18 -17 14 -6 13 -8 -8 -14 l-25 -7 25 -1 c14
0 36 7 50 15 24 15 24 15 2 11 -12 -3 -29 1 -36 9 -17 17 -26 18 -26 4z"/>
<path d="M2580 3922 c0 -4 4 -12 9 -17 5 -6 11 -19 13 -30 5 -19 5 -19 13 -2
5 13 1 24 -14 38 -11 11 -21 16 -21 11z"/>
<path d="M2147 3913 c-13 -12 -7 -43 8 -43 18 0 20 16 4 26 -8 4 -7 9 2 15 8
5 9 9 3 9 -6 0 -14 -3 -17 -7z"/>
<path d="M2877 3906 c-17 -13 -16 -14 3 -19 13 -3 24 1 30 14 13 23 -5 26 -33
5z"/>
<path d="M2416 3895 c4 -8 10 -15 15 -15 4 0 6 7 3 15 -4 8 -10 15 -15 15 -4
0 -6 -7 -3 -15z"/>
<path d="M2525 3901 c-3 -5 -1 -12 5 -16 5 -3 10 1 10 9 0 18 -6 21 -15 7z"/>
<path d="M2933 3903 c-21 -8 -15 -22 7 -16 12 3 20 0 20 -6 0 -7 5 -9 10 -6 9
5 -11 37 -22 34 -2 0 -9 -3 -15 -6z"/>
<path d="M2180 3880 c0 -5 5 -10 11 -10 5 0 7 5 4 10 -3 6 -8 10 -11 10 -2 0
-4 -4 -4 -10z"/>
<path d="M2370 3871 c0 -12 5 -21 10 -21 6 0 10 6 10 14 0 8 -4 18 -10 21 -5
3 -10 -3 -10 -14z"/>
<path d="M2710 3880 c-9 -6 -10 -10 -3 -10 6 0 15 5 18 10 8 12 4 12 -15 0z"/>
<path d="M3215 3875 c-22 -7 -32 -13 -23 -14 10 -1 16 -9 15 -20 -1 -11 -6
-17 -12 -13 -14 9 -75 9 -75 0 0 -5 8 -8 18 -8 16 -1 16 -1 0 -14 -28 -21 -21
-24 25 -12 51 14 90 35 67 37 -8 0 -4 5 10 9 17 5 19 8 8 9 -26 1 -22 19 5 23
12 2 18 6 12 9 -5 4 -28 1 -50 -6z"/>
<path d="M2797 3863 c3 -7 -1 -13 -8 -13 -7 0 -10 -2 -7 -5 9 -9 38 6 38 19 0
7 -6 13 -14 13 -8 0 -12 -6 -9 -14z"/>
<path d="M2995 3870 c-3 -5 -2 -10 4 -10 5 0 13 5 16 10 3 6 2 10 -4 10 -5 0
-13 -4 -16 -10z"/>
<path d="M2102 3858 c-18 -18 -14 -28 11 -28 32 0 67 11 67 21 0 5 -6 6 -14 3
-8 -3 -17 -1 -21 5 -8 14 -28 14 -43 -1z"/>
<path d="M2540 3866 c0 -2 7 -6 15 -10 8 -3 15 -1 15 4 0 6 -7 10 -15 10 -8 0
-15 -2 -15 -4z"/>
<path d="M2210 3850 c0 -5 5 -10 11 -10 5 0 7 5 4 10 -3 6 -8 10 -11 10 -2 0
-4 -4 -4 -10z"/>
<path d="M2745 3849 c-11 -17 1 -21 15 -4 8 9 8 15 2 15 -6 0 -14 -5 -17 -11z"/>
<path d="M2950 3844 c0 -14 3 -14 15 -4 8 7 15 14 15 16 0 2 -7 4 -15 4 -8 0
-15 -7 -15 -16z"/>
<path d="M2523 3833 c9 -2 23 -2 30 0 6 3 -1 5 -18 5 -16 0 -22 -2 -12 -5z"/>
<path d="M2610 3836 c0 -2 7 -7 16 -10 8 -3 12 -2 9 4 -6 10 -25 14 -25 6z"/>
<path d="M2880 3832 c0 -18 29 -27 43 -13 9 9 8 11 -7 5 -11 -4 -21 -2 -27 7
-6 10 -9 11 -9 1z"/>
<path d="M3270 3830 c-8 -5 -11 -12 -7 -16 4 -4 13 -2 19 4 15 15 7 24 -12 12z"/>
<path d="M2728 3813 c6 -2 18 -2 25 0 6 3 1 5 -13 5 -14 0 -19 -2 -12 -5z"/>
<path d="M2988 3805 c-3 -3 -16 -8 -28 -10 -13 -3 -28 -10 -34 -16 -8 -9 -8
-10 2 -5 7 4 27 9 44 12 34 4 64 24 37 24 -9 0 -18 -2 -21 -5z"/>
<path d="M2830 3796 c0 -2 9 -6 20 -9 11 -3 18 -1 14 4 -5 9 -34 13 -34 5z"/>
<path d="M2984 3765 c-16 -12 -16 -14 -3 -15 9 0 22 7 29 15 16 19 0 19 -26 0z"/>
<path d="M3117 3758 c-2 -9 -21 -12 -52 -11 -33 1 -44 -1 -34 -8 7 -5 21 -9
29 -9 28 0 90 21 90 30 0 15 -28 12 -33 -2z"/>
<path d="M3355 3765 c-5 -2 -27 -6 -49 -10 -43 -7 -40 -19 6 -21 17 -1 34 -8
39 -15 7 -11 12 -12 28 -2 10 6 22 9 25 6 12 -12 6 -22 -16 -25 -12 -2 -23 -9
-24 -16 -1 -7 0 -8 3 -2 2 5 16 10 30 10 31 0 28 29 -5 46 -29 14 -42 27 -18
18 14 -5 17 -4 12 4 -7 12 -13 13 -31 7z"/>
<path d="M2157 3747 c-4 -11 5 -12 46 -5 76 13 79 16 16 17 -39 1 -58 -3 -62
-12z"/>
<path d="M2544 3752 c5 -8 66 -4 66 4 0 2 -16 4 -36 4 -19 0 -33 -4 -30 -8z"/>
<path d="M2714 3718 c-3 -10 -10 -16 -15 -13 -5 3 -6 -1 -3 -9 5 -12 9 -13 19
-3 7 7 11 15 9 19 -3 4 15 8 38 10 l43 3 -43 5 c-34 5 -43 2 -48 -12z"/>
<path d="M1996 3718 c3 -5 -5 -18 -18 -29 l-23 -20 28 17 c15 9 27 21 27 26 0
6 7 4 17 -3 14 -12 16 -12 11 1 -2 8 -14 16 -26 16 -12 1 -19 -3 -16 -8z"/>
<path d="M2260 3720 c-10 -7 24 -9 105 -8 66 1 109 5 95 9 -38 11 -183 10
-200 -1z"/>
<path d="M2818 3723 c7 -3 16 -2 19 1 4 3 -2 6 -13 5 -11 0 -14 -3 -6 -6z"/>
<path d="M3145 3721 l-30 -6 40 -12 c21 -7 41 -10 44 -8 2 3 -1 5 -7 5 -7 0
-12 5 -12 10 0 6 11 8 25 4 15 -4 25 -2 25 5 0 12 -36 13 -85 2z"/>
<path d="M2168 3713 c6 -2 18 -2 25 0 6 3 1 5 -13 5 -14 0 -19 -2 -12 -5z"/>
<path d="M2534 3713 c10 -11 76 -11 70 -1 -3 4 -21 8 -41 8 -20 0 -33 -3 -29
-7z"/>
<path d="M2870 3710 c0 -5 12 -10 28 -10 21 0 24 2 12 10 -20 13 -40 13 -40 0z"/>
<path d="M3260 3716 c0 -1 5 -17 11 -34 9 -27 13 -30 25 -18 18 19 18 26 -1
26 -8 0 -15 7 -15 15 0 8 -4 15 -10 15 -5 0 -10 -2 -10 -4z"/>
<path d="M2790 3700 c-12 -7 -11 -9 5 -9 11 1 31 -3 45 -6 17 -5 22 -4 15 3
-16 16 -49 22 -65 12z"/>
<path d="M1920 3690 c0 -5 5 -10 10 -10 6 0 10 5 10 10 0 6 -4 10 -10 10 -5 0
-10 -4 -10 -10z"/>
<path d="M2243 3693 c32 -2 81 -2 110 0 29 2 3 3 -58 3 -60 0 -84 -1 -52 -3z"/>
<path d="M2418 3693 c7 -3 16 -2 19 1 4 3 -2 6 -13 5 -11 0 -14 -3 -6 -6z"/>
<path d="M2916 3668 c-18 -26 -5 -51 16 -30 9 9 9 12 -2 13 -8 0 -4 4 8 10 13
5 28 7 33 3 5 -3 9 -1 9 4 0 10 -23 22 -40 22 -5 0 -16 -10 -24 -22z"/>
<path d="M2538 3673 c12 -2 32 -2 45 0 12 2 2 4 -23 4 -25 0 -35 -2 -22 -4z"/>
<path d="M2715 3671 c-7 -13 2 -17 50 -24 28 -5 34 -4 20 3 -11 5 -31 9 -45
10 l-25 2 25 8 c23 7 23 8 3 9 -12 1 -24 -3 -28 -8z"/>
<path d="M3040 3670 c0 -10 41 -31 48 -25 1 1 0 10 -4 19 -7 17 -44 23 -44 6z"/>
<path d="M2658 3663 c7 -3 16 -2 19 1 4 3 -2 6 -13 5 -11 0 -14 -3 -6 -6z"/>
<path d="M2815 3640 c3 -5 13 -10 21 -10 8 0 12 5 9 10 -3 6 -13 10 -21 10 -8
0 -12 -4 -9 -10z"/>
<path d="M3113 3643 c-20 -7 10 -32 48 -40 23 -4 30 -3 25 5 -5 8 1 12 16 12
18 0 20 2 8 10 -20 13 -53 13 -45 0 7 -11 -6 -13 -29 -4 -9 3 -13 10 -10 15 6
10 5 10 -13 2z"/>
<path d="M3385 3643 c-41 -10 -41 -25 0 -18 30 5 36 4 25 -4 -13 -10 -13 -12
0 -21 19 -13 33 -13 25 0 -3 6 -1 10 4 10 6 0 11 -7 11 -15 0 -22 17 -18 23 6
12 45 -18 59 -88 42z"/>
<path d="M3016 3615 c4 -9 19 -15 41 -15 23 0 32 -4 27 -11 -5 -9 1 -10 20 -5
18 4 25 3 21 -3 -4 -7 6 -9 27 -5 32 5 32 5 13 -11 -20 -17 -19 -17 7 -11 17
4 28 1 31 -7 2 -6 8 -9 12 -5 21 20 -80 68 -142 68 -17 0 -35 5 -38 10 -10 16
-25 12 -19 -5z"/>
<path d="M3235 3610 c3 -5 13 -10 21 -10 8 0 17 -7 20 -15 4 -8 13 -15 21 -15
8 0 12 4 9 9 -4 5 -3 11 1 14 5 2 2 2 -5 0 -8 -1 -23 4 -35 12 -25 17 -41 20
-32 5z"/>
<path d="M2266 3593 c16 -3 20 -9 17 -24 -3 -11 0 -19 6 -19 7 0 9 5 6 10 -3
6 -2 10 3 10 6 0 12 7 16 15 4 12 -3 15 -32 14 -21 -1 -28 -4 -16 -6z"/>
<path d="M2610 3590 c24 -8 24 -8 -7 -9 -41 -1 -54 -21 -14 -21 18 0 34 -7 40
-17 7 -13 9 -9 9 20 0 34 -2 37 -26 36 l-27 -1 25 -8z"/>
<path d="M2353 3583 c9 -2 25 -2 35 0 9 3 1 5 -18 5 -19 0 -27 -2 -17 -5z"/>
<path d="M1993 3563 c9 -2 25 -2 35 0 9 3 1 5 -18 5 -19 0 -27 -2 -17 -5z"/>
<path d="M2315 3560 c-4 -6 6 -10 24 -10 16 0 33 5 36 10 4 6 -6 10 -24 10
-16 0 -33 -4 -36 -10z"/>
<path d="M2401 3566 c12 -10 79 -16 79 -6 0 5 -19 10 -42 10 -23 0 -39 -2 -37
-4z"/>
<path d="M2808 3563 c6 -2 18 -2 25 0 6 3 1 5 -13 5 -14 0 -19 -2 -12 -5z"/>
<path d="M3348 3563 c-20 -5 -23 -18 -8 -28 14 -8 83 6 73 15 -12 11 -46 18
-65 13z"/>
<path d="M1764 3546 c4 -12 0 -23 -10 -30 -14 -11 -14 -13 -1 -25 13 -10 16
-7 22 20 5 20 3 35 -5 42 -10 9 -11 8 -6 -7z"/>
<path d="M1836 3545 c-3 -8 -1 -15 4 -15 6 0 10 7 10 15 0 8 -2 15 -4 15 -2 0
-6 -7 -10 -15z"/>
<path d="M2895 3540 c3 -5 12 -7 20 -3 21 7 19 13 -6 13 -11 0 -18 -4 -14 -10z"/>
<path d="M2358 3533 c23 -2 61 -2 85 0 23 2 4 4 -43 4 -47 0 -66 -2 -42 -4z"/>
<path d="M2800 3530 c0 -6 -6 -10 -12 -9 -33 4 -68 -2 -68 -12 0 -6 9 -8 20
-4 12 4 20 2 20 -5 0 -8 6 -8 20 0 12 6 20 7 20 1 0 -5 -5 -12 -10 -14 -6 -3
-5 -4 2 -3 7 2 27 -3 44 -10 17 -7 41 -10 52 -7 13 3 22 1 22 -6 0 -6 11 -11
25 -11 14 0 25 -6 25 -12 0 -7 16 4 36 25 41 43 37 53 -21 61 -22 3 -31 2 -20
-2 11 -4 21 -15 21 -25 2 -13 -1 -15 -11 -7 -14 12 -77 2 -87 -14 -5 -8 -11
-7 -20 2 -6 6 -20 12 -31 12 -10 0 -16 4 -13 9 4 5 0 11 -6 14 -7 2 4 4 24 4
38 -1 57 8 45 19 -4 4 -13 1 -21 -5 -11 -9 -20 -10 -35 -1 -15 7 -21 8 -21 0z
m157 -56 c-3 -3 -12 -4 -19 -1 -8 3 -5 6 6 6 11 1 17 -2 13 -5z"/>
<path d="M3424 3529 c-4 -8 1 -9 17 -5 24 7 24 7 -1 -8 -20 -12 -22 -15 -7
-16 10 0 28 5 40 12 21 11 21 11 2 19 -29 11 -43 10 -51 -2z"/>
<path d="M1715 3496 c-9 -19 -15 -41 -13 -48 2 -6 12 8 22 31 21 53 14 66 -9
17z"/>
<path d="M2550 3520 c-22 -7 -21 -8 13 -9 23 -1 36 3 32 9 -7 11 -10 11 -45 0z"/>
<path d="M3277 3508 c-4 -13 3 -23 24 -34 27 -13 31 -13 45 1 14 13 14 15 -3
13 -10 0 -29 0 -42 0 -23 2 -23 3 -8 20 14 15 14 19 3 19 -8 0 -17 -9 -19 -19z"/>
<path d="M1857 3503 c4 -11 3 -14 -5 -9 -7 4 -12 2 -12 -4 0 -7 7 -9 16 -6 10
4 21 -4 32 -24 9 -16 22 -30 29 -30 6 0 14 -10 16 -22 l4 -23 2 22 c0 12 -7
30 -18 40 -10 10 -26 30 -36 46 -19 30 -38 37 -28 10z"/>
<path d="M3051 3511 c-7 -5 -12 -14 -10 -20 3 -8 13 -5 28 8 24 21 10 30 -18
12z"/>
<path d="M3100 3486 c0 -8 -13 -21 -30 -30 -26 -12 -30 -12 -30 0 0 8 -7 14
-15 14 -13 0 -17 -6 -14 -26 0 -4 -5 -11 -13 -16 -9 -7 -4 -8 15 -4 15 4 27 2
27 -3 0 -5 7 -12 16 -15 8 -3 12 -2 9 4 -3 5 13 9 40 8 25 0 45 -4 45 -8 0
-12 46 -28 60 -20 7 4 21 5 31 3 10 -3 19 0 19 6 0 6 -7 8 -17 4 -10 -4 -14
-2 -10 4 4 6 -2 8 -16 6 -13 -3 -39 2 -58 10 -33 15 -33 15 -7 16 14 1 28 -5
30 -11 3 -9 10 -7 24 7 17 17 17 18 1 12 -10 -4 -27 -1 -38 6 -17 10 -23 9
-39 -10 l-18 -22 -5 25 c-3 17 -1 24 8 20 8 -3 11 2 8 15 -6 22 -23 26 -23 5z"/>
<path d="M3385 3490 c-19 -8 -19 -9 3 -9 12 -1 22 4 22 9 0 6 -1 10 -2 9 -2 0
-12 -4 -23 -9z"/>
<path d="M3507 3441 c1 -61 22 -123 23 -71 l1 25 14 -25 c21 -37 18 -9 -4 41
-19 41 -19 65 -1 54 4 -3 6 4 3 15 -3 11 -13 20 -22 20 -13 0 -16 -10 -14 -59z"/>
<path d="M1925 3480 c-3 -5 -2 -10 4 -10 5 0 13 5 16 10 3 6 2 10 -4 10 -5 0
-13 -4 -16 -10z"/>
<path d="M3148 3483 c7 -3 16 -2 19 1 4 3 -2 6 -13 5 -11 0 -14 -3 -6 -6z"/>
<path d="M3430 3480 c-12 -7 -12 -12 -2 -22 9 -9 12 -8 12 6 0 9 5 14 10 11 6
-3 10 -1 10 4 0 13 -10 14 -30 1z"/>
<path d="M3180 3470 c0 -5 4 -10 9 -10 6 0 13 5 16 10 3 6 -1 10 -9 10 -9 0
-16 -4 -16 -10z"/>
<path d="M1724 3444 c-21 -21 -21 -22 -2 -45 18 -22 18 -22 9 -2 -13 27 -14
33 -2 33 11 0 33 -59 26 -70 -3 -5 -1 -19 4 -32 7 -15 10 -17 10 -7 1 9 8 19
16 23 8 3 15 11 14 18 0 10 -2 10 -6 1 -2 -7 -9 -13 -15 -13 -6 0 -8 24 -6 59
1 33 0 57 -4 54 -5 -2 -9 -14 -9 -26 -1 -20 -2 -20 -8 3 l-6 25 -21 -21z"/>
<path d="M1787 3449 c-10 -35 -9 -36 14 -58 14 -12 19 -26 15 -37 -4 -11 -2
-15 8 -11 10 4 12 0 9 -14 -3 -10 -9 -19 -14 -19 -14 0 -11 -28 4 -33 9 -4 9
-6 0 -6 -6 -1 -19 9 -27 21 -29 42 -16 5 16 -46 43 -67 53 -77 72 -70 11 4 16
0 17 -12 0 -17 1 -17 8 1 10 23 -6 37 -31 29 -10 -3 -18 -1 -18 5 0 5 9 13 20
16 11 3 20 10 20 14 0 17 -14 19 -35 5 -13 -8 -25 -11 -28 -7 -9 15 -5 83 5
89 7 4 9 -8 6 -35 -2 -29 0 -41 9 -41 16 0 16 -3 2 61 -6 29 -18 59 -25 67 -8
7 -14 19 -14 27 0 7 -6 27 -14 45 -13 31 -13 31 -19 9z"/>
<path d="M3227 3459 c7 -7 15 -10 18 -7 3 3 -2 9 -12 12 -14 6 -15 5 -6 -5z"/>
<path d="M1948 3454 c-2 -5 3 -25 13 -44 13 -25 18 -29 18 -15 0 24 -24 71
-31 59z"/>
<path d="M2372 3435 c-11 -13 -7 -15 25 -14 21 1 30 3 20 6 -9 2 -15 9 -12 14
10 15 -19 10 -33 -6z"/>
<path d="M3245 3440 c-13 -5 -14 -9 -5 -9 8 0 24 4 35 9 13 5 14 9 5 9 -8 0
-24 -4 -35 -9z"/>
<path d="M2598 3433 c7 -3 16 -2 19 1 4 3 -2 6 -13 5 -11 0 -14 -3 -6 -6z"/>
<path d="M3400 3430 c8 -5 22 -9 30 -9 10 0 8 3 -5 9 -27 12 -43 12 -25 0z"/>
<path d="M3555 3420 c12 -41 27 -60 20 -25 -4 17 -11 35 -17 40 -7 7 -8 2 -3
-15z"/>
<path d="M1901 3404 c0 -11 3 -14 6 -6 3 7 2 16 -1 19 -3 4 -6 -2 -5 -13z"/>
<path d="M2270 3401 c0 -5 5 -13 10 -16 6 -3 10 -2 10 4 0 5 -4 13 -10 16 -5
3 -10 2 -10 -4z"/>
<path d="M2310 3399 c0 -8 22 -10 75 -5 77 7 122 -2 75 -15 -19 -5 -14 -7 23
-8 26 -1 47 4 47 9 0 6 7 10 15 10 8 0 15 5 15 10 0 6 -48 10 -125 10 -87 0
-125 -3 -125 -11z"/>
<path d="M2642 3399 c3 -9 21 -15 52 -15 26 -1 53 -7 59 -13 8 -8 6 -11 -7
-11 -9 0 -15 -4 -12 -9 4 -5 0 -12 -6 -15 -7 -3 6 -4 30 -1 25 3 41 2 38 -4
-3 -5 5 -12 18 -15 13 -3 32 -9 42 -13 12 -4 15 -3 10 5 -4 7 -16 12 -27 12
-10 0 -19 5 -19 10 0 6 7 10 15 10 9 0 12 6 9 15 -7 17 25 21 41 6 6 -4 24
-11 41 -14 26 -5 33 -2 37 13 4 17 2 18 -14 9 -11 -5 -30 -7 -42 -3 -21 7 -20
8 8 14 l30 6 -32 5 c-18 3 -30 2 -27 -3 3 -4 -8 -8 -25 -8 -16 0 -31 -6 -34
-12 -3 -10 -9 -9 -23 3 -10 9 -37 19 -59 22 -22 3 -55 9 -74 13 -27 6 -33 4
-29 -7z m158 -39 c0 -5 -5 -10 -11 -10 -5 0 -7 5 -4 10 3 6 8 10 11 10 2 0 4
-4 4 -10z"/>
<path d="M2768 3403 c7 -3 16 -2 19 1 4 3 -2 6 -13 5 -11 0 -14 -3 -6 -6z"/>
<path d="M3132 3385 c9 -10 21 -16 28 -13 7 2 -1 10 -16 17 -27 12 -28 11 -12
-4z"/>
<path d="M1676 3375 c4 -8 8 -15 10 -15 2 0 4 7 4 15 0 8 -4 15 -10 15 -5 0
-7 -7 -4 -15z"/>
<path d="M3335 3370 c3 -5 1 -10 -5 -10 -6 0 -8 -4 -5 -10 3 -6 -5 -10 -19
-10 -14 0 -28 -6 -32 -12 -4 -7 -4 -10 1 -6 4 4 14 1 22 -7 8 -8 20 -15 26
-14 9 0 8 2 0 6 -7 2 -13 9 -13 14 0 14 38 11 43 -3 3 -7 4 1 2 17 -4 45 -4
45 -16 45 -5 0 -7 -4 -4 -10z"/>
<path d="M1662 3310 c3 -51 13 -64 25 -32 4 9 11 20 16 23 12 8 -7 45 -28 53
-14 5 -16 -2 -13 -44z"/>
<path d="M3458 3353 c7 -3 16 -2 19 1 4 3 -2 6 -13 5 -11 0 -14 -3 -6 -6z"/>
<path d="M3380 3335 c0 -8 5 -15 10 -15 6 0 10 7 10 15 0 8 -4 15 -10 15 -5 0
-10 -7 -10 -15z"/>
<path d="M2865 3330 c3 -5 8 -10 11 -10 2 0 4 5 4 10 0 6 -5 10 -11 10 -5 0
-7 -4 -4 -10z"/>
<path d="M2915 3320 c3 -5 14 -10 23 -10 10 0 28 -7 40 -16 12 -8 22 -10 22
-5 0 6 -16 18 -36 26 -42 17 -58 19 -49 5z"/>
<path d="M3090 3308 c0 -5 9 -12 21 -15 11 -3 18 -11 15 -19 -3 -8 0 -11 10
-7 9 3 14 13 11 24 -3 10 0 20 5 21 6 2 -6 4 -26 5 -20 1 -36 -3 -36 -9z"/>
<path d="M3548 3313 c-20 -5 -22 -12 -10 -31 6 -9 12 -6 20 13 6 14 11 24 9
24 -1 -1 -10 -3 -19 -6z"/>
<path d="M1960 3300 c0 -5 5 -10 10 -10 6 0 10 5 10 10 0 6 -4 10 -10 10 -5 0
-10 -4 -10 -10z"/>
<path d="M1990 3304 c0 -5 6 -18 13 -28 12 -16 14 -16 26 -2 7 8 11 21 8 28
-4 8 -6 7 -6 -4 -1 -10 -4 -18 -7 -18 -4 0 -13 8 -20 18 -7 9 -14 12 -14 6z"/>
<path d="M2880 3300 c0 -5 5 -10 10 -10 6 0 10 5 10 10 0 6 -4 10 -10 10 -5 0
-10 -4 -10 -10z"/>
<path d="M3200 3295 c14 -8 19 -14 11 -15 -8 0 -12 -2 -9 -5 3 -3 13 -2 23 1
15 6 15 8 -6 20 -13 7 -28 13 -34 13 -5 0 1 -6 15 -14z"/>
<path d="M3411 3302 c-6 -2 -11 -10 -11 -18 0 -8 -6 -14 -12 -14 -9 0 -8 -4 2
-10 8 -5 20 -10 25 -10 6 0 3 5 -5 10 -13 8 -13 10 2 10 9 0 18 3 21 8 2 4 2
2 1 -5 -2 -7 3 -10 12 -6 20 7 18 -14 -3 -26 -17 -10 -16 -10 2 -10 11 0 29 6
39 14 16 12 17 15 4 15 -11 0 -14 7 -10 25 4 23 2 25 -25 23 -17 -1 -35 -4
-42 -6z"/>
<path d="M1641 3284 c0 -11 3 -14 6 -6 3 7 2 16 -1 19 -3 4 -6 -2 -5 -13z"/>
<path d="M3010 3291 c2 -24 60 -53 60 -30 0 5 6 9 14 9 10 0 13 -8 10 -26 -4
-22 -2 -24 14 -15 11 6 23 7 27 3 5 -4 5 -1 1 6 -4 6 -14 12 -22 12 -8 0 -13
4 -9 9 3 6 -5 15 -17 22 -24 13 -78 20 -78 10z"/>
<path d="M3580 3285 c0 -8 -5 -15 -12 -15 -9 0 -9 -3 0 -12 7 -7 8 -16 2 -23
-6 -8 -5 -18 5 -31 14 -18 14 -17 16 11 0 17 3 42 5 58 3 15 0 27 -6 27 -5 0
-10 -7 -10 -15z"/>
<path d="M2245 3280 c-3 -6 1 -7 9 -4 18 7 21 14 7 14 -6 0 -13 -4 -16 -10z"/>
<path d="M3165 3270 c-10 -30 4 -45 22 -23 12 15 14 15 9 1 -3 -12 1 -15 20
-13 13 1 24 -2 24 -6 0 -5 -7 -9 -17 -9 -9 0 -14 -3 -10 -6 8 -8 47 5 47 16 0
4 -14 13 -30 19 -17 5 -33 17 -36 26 -8 21 -21 19 -29 -5z"/>
<path d="M2130 3276 c0 -2 9 -6 20 -9 11 -3 20 -1 20 4 0 5 -9 9 -20 9 -11 0
-20 -2 -20 -4z"/>
<path d="M2200 3270 c0 -5 -6 -10 -14 -10 -8 0 -17 -6 -19 -12 -4 -10 -6 -10
-6 0 -1 6 -6 12 -11 12 -6 0 -6 -7 2 -19 11 -18 12 -18 32 0 21 21 48 27 28 7
-7 -7 -12 -16 -12 -22 0 -17 20 9 25 32 2 14 -1 22 -11 22 -8 0 -14 -4 -14
-10z"/>
<path d="M2600 3276 c0 -8 51 -13 56 -5 3 5 -9 9 -25 9 -17 0 -31 -2 -31 -4z"/>
<path d="M3260 3276 c0 -2 7 -6 15 -10 8 -3 15 -1 15 4 0 6 -7 10 -15 10 -8 0
-15 -2 -15 -4z"/>
<path d="M1690 3249 c0 -11 5 -17 10 -14 6 3 10 13 10 21 0 8 -4 14 -10 14 -5
0 -10 -9 -10 -21z"/>
<path d="M1640 3248 c0 -9 5 -20 10 -23 13 -8 13 5 0 25 -8 13 -10 13 -10 -2z"/>
<path d="M2584 3235 c4 -37 14 -41 36 -17 28 29 25 42 -9 42 -26 0 -29 -3 -27
-25z"/>
<path d="M2760 3230 c0 -32 -16 -41 -23 -12 -4 13 -5 12 -6 -5 0 -12 -5 -24
-10 -27 -5 -3 -11 -16 -14 -28 l-6 -23 20 24 19 23 0 -31 c0 -22 -4 -30 -12
-25 -7 5 -8 3 -3 -6 4 -7 2 -16 -5 -20 -8 -5 -10 -15 -5 -26 7 -18 8 -18 16 1
6 14 7 6 4 -25 l-6 -45 26 59 c26 61 34 115 10 61 -12 -25 -14 -27 -15 -9 0
12 7 45 17 73 12 39 21 51 36 51 26 0 20 5 -15 14 -26 6 -28 4 -28 -24z"/>
<path d="M2288 3220 c-9 -19 -19 -44 -23 -55 -7 -19 -8 -19 -14 -2 -6 17 -8
17 -20 3 -7 -8 -11 -21 -8 -28 3 -7 6 -4 6 7 1 17 4 16 20 -9 22 -33 17 -57
-6 -29 -13 17 -13 16 -3 -5 6 -12 8 -32 5 -42 -10 -30 4 -24 16 7 8 20 12 24
18 14 7 -11 11 -9 20 7 9 18 9 21 -3 16 -9 -3 -19 3 -26 16 -13 25 -10 30 19
33 22 1 28 21 11 32 -8 5 -7 11 0 20 7 8 10 22 8 32 -3 13 -8 9 -20 -17z"/>
<path d="M3291 3241 c-7 -5 -11 -13 -7 -19 11 -19 -5 -40 -27 -36 -12 2 1 -4
28 -13 28 -10 52 -21 53 -25 5 -12 22 -10 22 2 0 6 -11 16 -25 22 -29 13 -33
28 -7 28 14 0 13 4 -7 19 -18 14 -21 20 -10 24 8 3 10 6 4 6 -5 0 -16 -3 -24
-8z"/>
<path d="M3514 3219 c2 -23 11 -36 32 -47 15 -8 34 -21 42 -28 20 -20 22 -18
21 24 -1 23 -3 28 -6 15 -4 -22 -23 -33 -23 -14 0 5 -9 11 -21 14 -13 3 -18
10 -14 17 4 6 -2 20 -14 31 l-21 20 4 -32z"/>
<path d="M1720 3222 c0 -10 5 -23 12 -30 9 -9 9 -12 -1 -12 -7 0 -15 9 -18 19
-3 12 -13 19 -24 18 -26 -2 -24 -16 5 -26 13 -5 26 -17 30 -26 5 -13 9 -15 20
-6 7 6 16 8 19 4 13 -13 7 6 -14 41 -24 41 -29 44 -29 18z"/>
<path d="M2246 3212 l-19 -27 24 22 c12 12 21 24 18 27 -2 2 -13 -8 -23 -22z"/>
<path d="M2115 3220 c-4 -6 -11 -8 -16 -5 -16 11 -9 -21 9 -41 11 -11 22 -26
25 -34 5 -10 6 -9 6 5 -2 34 1 41 11 25 8 -11 9 -7 4 15 -10 46 -24 59 -39 35z"/>
<path d="M2467 3214 c5 -14 3 -16 -11 -11 -12 5 -20 -1 -28 -18 -6 -14 -15
-25 -19 -25 -5 0 -13 -10 -20 -21 -9 -17 -8 -20 3 -14 7 3 6 0 -3 -7 -13 -11
-14 -16 -4 -25 13 -12 22 -2 31 32 7 32 25 65 34 65 15 0 12 -36 -5 -50 -16
-13 -21 -60 -6 -60 5 0 11 10 14 22 8 27 16 20 19 -15 1 -15 6 -27 9 -27 9 0
5 47 -4 57 -4 3 -6 25 -6 47 l2 41 6 -35 c6 -34 7 -34 19 -13 6 12 21 25 32
28 28 9 25 28 -3 21 -14 -3 -33 1 -45 10 -20 14 -21 14 -15 -2z"/>
<path d="M2908 3223 c7 -3 16 -2 19 1 4 3 -2 6 -13 5 -11 0 -14 -3 -6 -6z"/>
<path d="M3151 3205 c13 -13 21 -15 35 -6 17 9 17 10 2 11 -9 0 -25 3 -35 6
-17 6 -17 6 -2 -11z"/>
<path d="M3480 3210 c19 -13 30 -13 30 0 0 6 -10 10 -22 10 -19 0 -20 -2 -8
-10z"/>
<path d="M2065 3200 c-3 -5 -1 -10 4 -10 6 0 11 5 11 10 0 6 -2 10 -4 10 -3 0
-8 -4 -11 -10z"/>
<path d="M2786 3195 c-3 -8 -1 -15 4 -15 6 0 10 7 10 15 0 8 -2 15 -4 15 -2 0
-6 -7 -10 -15z"/>
<path d="M2880 3194 c0 -6 10 -9 24 -7 34 7 38 -17 15 -93 -11 -36 -18 -71
-16 -77 2 -6 14 26 26 72 12 45 20 89 17 96 -3 8 0 16 7 18 7 2 -7 4 -30 3
-25 0 -43 -5 -43 -12z"/>
<path d="M3348 3191 c-7 -9 -9 -13 -4 -9 11 9 39 -19 31 -31 -3 -5 0 -13 6
-17 8 -4 9 -3 5 4 -13 22 9 12 41 -18 18 -17 39 -30 47 -30 9 0 16 -5 16 -11
0 -8 5 -8 15 1 12 10 15 10 15 -3 0 -40 -32 -65 -43 -34 -2 6 -8 8 -13 4 -5
-4 -2 -12 6 -17 22 -14 70 -12 70 3 0 6 11 -1 24 -17 13 -17 21 -38 18 -48 -2
-10 0 -18 6 -18 12 0 28 107 18 117 -3 4 -6 -7 -6 -23 0 -19 -3 -25 -9 -16 -4
7 -14 12 -21 10 -17 -4 -45 72 -31 82 6 3 3 13 -9 23 -11 9 -22 12 -25 7 -4
-6 -1 -10 4 -10 6 0 11 -5 11 -11 0 -7 -7 -8 -17 -4 -10 4 -28 7 -40 6 -17 0
-23 5 -23 20 0 16 3 19 13 11 7 -6 18 -7 26 -2 11 6 6 12 -17 24 -34 17 -56
22 -32 6 13 -8 12 -10 -2 -10 -10 0 -18 4 -18 9 0 17 -49 19 -62 2z m37 -9
c-3 -3 -11 0 -18 7 -9 10 -8 11 6 5 10 -3 15 -9 12 -12z m102 -68 c-3 -3 -12
-4 -19 -1 -8 3 -5 6 6 6 11 1 17 -2 13 -5z"/>
<path d="M2028 3175 c-4 -20 -3 -23 8 -14 11 9 14 7 14 -9 0 -12 4 -23 9 -26
11 -7 2 -46 -10 -46 -12 0 -11 -47 1 -55 6 -3 10 3 10 14 0 23 31 81 44 81 5
0 3 -7 -4 -15 -7 -9 -10 -18 -7 -21 3 -3 11 4 17 16 9 17 9 25 -3 38 -8 9 -17
24 -21 32 -3 8 -4 2 -2 -15 l5 -30 -12 28 c-6 15 -17 27 -25 27 -7 0 -10 5 -7
10 3 6 2 10 -3 10 -5 0 -12 -11 -14 -25z"/>
<path d="M2319 3186 c6 -7 9 -20 5 -29 -3 -8 -1 -18 5 -22 7 -3 8 0 5 9 -4 11
0 16 12 16 16 0 16 2 -4 20 -24 23 -40 27 -23 6z"/>
<path d="M2360 3190 c0 -5 5 -10 10 -10 6 0 10 5 10 10 0 6 -4 10 -10 10 -5 0
-10 -4 -10 -10z"/>
<path d="M1670 3170 c6 -11 13 -20 16 -20 2 0 0 9 -6 20 -6 11 -13 20 -16 20
-2 0 0 -9 6 -20z"/>
<path d="M3065 3160 c-4 -12 -5 -24 -2 -27 3 -2 8 5 12 17 4 12 5 24 2 27 -3
2 -8 -5 -12 -17z"/>
<path d="M3230 3165 c14 -8 30 -14 35 -14 6 0 -1 6 -15 14 -14 8 -29 14 -35
14 -5 0 1 -6 15 -14z"/>
<path d="M2541 3156 c-10 -12 -8 -13 8 -9 12 3 18 9 15 14 -7 12 -10 11 -23
-5z"/>
<path d="M2609 3153 c-13 -16 -12 -17 4 -4 16 13 21 21 13 21 -2 0 -10 -8 -17
-17z"/>
<path d="M2868 3149 c-6 -31 1 -89 11 -89 12 0 33 43 23 49 -5 3 -13 20 -19
36 l-10 30 -5 -26z"/>
<path d="M3090 3158 c-1 -7 -5 -33 -10 -58 -7 -40 -7 -43 6 -25 8 10 14 26 14
34 0 9 3 26 6 39 4 13 2 22 -5 22 -6 0 -11 -6 -11 -12z"/>
<path d="M1920 3151 c0 -10 19 -25 25 -20 1 2 -3 10 -11 17 -8 7 -14 8 -14 3z"/>
<path d="M2901 3144 c0 -11 3 -14 6 -6 3 7 2 16 -1 19 -3 4 -6 -2 -5 -13z"/>
<path d="M1760 3120 c-10 -24 -15 -28 -27 -19 -11 10 -12 9 -7 -5 8 -22 19
-20 38 7 13 19 15 19 9 2 -6 -18 -5 -18 10 -6 13 10 14 18 6 32 -13 25 -14 24
-29 -11z"/>
<path d="M2181 3127 c-13 -21 -12 -21 5 -5 10 10 16 20 13 22 -3 3 -11 -5 -18
-17z"/>
<path d="M3030 3136 c0 -8 5 -18 10 -21 13 -8 13 -35 1 -35 -5 0 -11 6 -14 13
-2 6 -2 -1 1 -18 3 -16 5 -38 4 -49 -2 -28 11 -9 25 37 8 26 9 43 3 45 -6 2
-10 12 -10 23 0 10 -4 19 -10 19 -5 0 -10 -6 -10 -14z"/>
<path d="M1640 3125 c0 -8 4 -15 10 -15 5 0 7 7 4 15 -4 8 -8 15 -10 15 -2 0
-4 -7 -4 -15z"/>
<path d="M1705 3130 c3 -5 8 -10 11 -10 2 0 4 5 4 10 0 6 -5 10 -11 10 -5 0
-7 -4 -4 -10z"/>
<path d="M1621 3114 c0 -11 3 -14 6 -6 3 7 2 16 -1 19 -3 4 -6 -2 -5 -13z"/>
<path d="M1994 3086 c0 -25 6 -50 12 -56 9 -9 10 -5 7 14 -3 14 0 32 6 40 8
10 6 17 -8 30 -18 16 -18 15 -17 -28z"/>
<path d="M2572 3122 c-7 -2 -19 -17 -28 -33 -12 -25 -13 -30 -1 -27 17 4 97
-80 97 -102 0 -8 25 -41 55 -72 30 -31 55 -63 55 -72 0 -8 25 -41 56 -73 50
-52 82 -105 76 -125 -1 -5 5 -8 13 -8 8 0 15 -6 15 -14 0 -8 7 -16 15 -20 8
-3 15 -10 15 -15 0 -11 33 -52 74 -91 27 -27 64 -81 85 -125 5 -11 33 -45 62
-76 30 -30 70 -76 89 -102 33 -44 60 -60 60 -36 0 6 -20 38 -45 70 -25 33 -45
66 -45 73 0 17 -30 55 -84 107 -25 25 -36 44 -32 54 3 9 2 14 -3 11 -13 -9
-21 19 -9 35 7 11 11 11 15 2 2 -7 11 -13 19 -13 9 0 12 -4 9 -10 -3 -5 -1
-10 4 -10 6 0 11 3 10 8 -1 12 -27 77 -28 70 -1 -4 -13 -3 -27 3 -32 12 -42 5
-24 -16 20 -24 4 -29 -18 -7 -23 23 -47 63 -44 74 1 4 -7 10 -18 13 -27 9 -82
75 -76 91 3 8 1 14 -5 14 -16 0 -79 71 -85 97 -4 12 -10 23 -14 23 -9 0 -25
40 -22 52 1 4 -4 5 -11 2 -7 -2 -22 6 -33 18 -30 33 -71 112 -66 126 7 21 22
13 22 -13 0 -16 6 -25 15 -25 8 0 15 5 15 11 0 5 -5 7 -11 3 -6 -3 -10 1 -9
12 4 33 0 45 -10 39 -5 -3 -10 4 -11 17 -1 19 -3 17 -12 -10 -14 -45 -35 -38
-67 24 -14 28 -31 49 -38 46z"/>
<path d="M3325 3120 c3 -5 8 -10 11 -10 2 0 4 5 4 10 0 6 -5 10 -11 10 -5 0
-7 -4 -4 -10z"/>
<path d="M3404 3116 c2 -17 44 -52 52 -44 2 3 -9 17 -25 32 -21 20 -29 24 -27
12z"/>
<path d="M3177 3090 c-7 -29 0 -40 13 -20 9 13 10 13 10 0 1 -12 4 -11 15 4 8
10 19 15 26 10 9 -5 7 -11 -7 -22 -18 -13 -17 -14 13 -9 32 6 55 -7 31 -16 -9
-4 -8 -6 2 -6 8 0 22 4 30 9 12 8 12 10 1 10 -7 0 -23 11 -35 23 -12 13 -35
27 -52 31 -21 5 -25 4 -14 -4 13 -8 13 -10 -2 -10 -9 0 -18 6 -20 12 -3 7 -7
2 -11 -12z"/>
<path d="M1640 3092 c0 -5 7 -13 16 -16 10 -4 14 -1 12 6 -5 15 -28 23 -28 10z"/>
<path d="M1800 3083 c0 -12 -3 -28 -6 -37 -3 -9 -1 -16 5 -16 16 0 26 49 12
63 -8 8 -11 6 -11 -10z"/>
<path d="M1975 3080 c3 -5 8 -10 11 -10 2 0 4 5 4 10 0 6 -5 10 -11 10 -5 0
-7 -4 -4 -10z"/>
<path d="M2360 3081 c0 -5 9 -19 20 -32 l20 -24 -16 33 c-15 32 -24 40 -24 23z"/>
<path d="M3290 3085 c0 -6 56 -35 67 -35 4 0 -5 9 -22 20 -29 19 -45 25 -45
15z"/>
<path d="M3410 3070 c0 -5 5 -10 11 -10 5 0 7 5 4 10 -3 6 -8 10 -11 10 -2 0
-4 -4 -4 -10z"/>
<path d="M1946 3045 c-9 -24 -7 -37 4 -30 6 4 8 12 4 18 -3 7 2 3 10 -7 9 -11
19 -16 23 -12 4 3 -2 16 -14 27 -18 19 -21 19 -27 4z"/>
<path d="M6014 3045 c-8 -20 -1 -29 58 -68 29 -19 62 -44 72 -56 11 -12 36
-31 55 -43 20 -12 50 -34 66 -50 17 -15 64 -54 106 -86 41 -31 109 -83 150
-115 408 -318 474 -366 484 -356 12 12 0 23 -205 185 -80 63 -181 143 -225
179 -81 67 -184 147 -281 220 -29 22 -74 56 -99 75 -26 19 -71 56 -101 83 -58
50 -71 56 -80 32z"/>
<path d="M2857 3036 c-3 -8 -3 -24 0 -35 4 -17 8 -19 19 -10 18 15 18 27 0 44
-12 12 -15 12 -19 1z"/>
<path d="M3005 2997 c0 -43 3 -52 19 -55 14 -3 17 0 13 11 -3 9 -9 32 -13 51
-10 54 -19 51 -19 -7z m12 -39 c-3 -8 -6 -5 -6 6 -1 11 2 17 5 13 3 -3 4 -12
1 -19z"/>
<path d="M1813 3013 c-7 -15 -10 -29 -7 -32 4 -3 9 0 11 7 3 6 13 12 24 12 10
0 19 5 19 10 0 6 -8 10 -17 10 -15 0 -16 2 -3 10 13 9 13 10 0 10 -8 0 -21
-12 -27 -27z"/>
<path d="M2121 3032 c-1 -8 -10 -27 -22 -43 -11 -16 -16 -29 -10 -29 14 0 44
58 37 73 -3 8 -5 8 -5 -1z"/>
<path d="M2314 3029 c-4 -7 -3 -9 4 -5 5 3 13 0 15 -6 4 -9 6 -10 6 -1 1 17
-16 25 -25 12z"/>
<path d="M2422 3026 c7 -8 17 -12 22 -9 4 3 2 9 -5 14 -22 13 -31 11 -17 -5z"/>
<path d="M2505 3029 c-4 -6 -4 -13 -1 -16 3 -4 6 -1 6 5 0 7 4 12 9 12 5 0 7
-10 4 -22 -5 -18 -3 -21 7 -11 14 12 7 43 -9 43 -5 0 -13 -5 -16 -11z"/>
<path d="M3322 3031 c-11 -6 -10 -10 4 -15 9 -3 19 -4 22 -1 3 3 0 5 -7 5 -7
0 -9 5 -6 10 7 12 4 12 -13 1z"/>
<path d="M5590 3002 c-30 -20 -100 -72 -154 -116 -55 -45 -146 -117 -203 -161
-154 -119 -492 -386 -527 -417 -22 -19 -28 -30 -20 -37 9 -10 122 72 478 352
44 34 130 100 191 147 62 47 131 102 153 122 23 20 60 50 84 65 52 34 68 48
68 62 0 22 -18 18 -70 -17z"/>
<path d="M2171 3000 c-19 -20 -23 -21 -17 -6 5 16 4 17 -9 6 -8 -7 -15 -18
-15 -25 0 -8 -3 -15 -7 -18 -5 -2 -2 -2 6 0 7 2 19 -1 26 -7 9 -8 14 -6 19 7
5 11 10 14 14 6 4 -6 17 4 33 26 l25 36 -25 0 c-15 0 -37 -11 -50 -25z m30
-23 c-8 -8 -11 -7 -11 4 0 20 13 34 18 19 3 -7 -1 -17 -7 -23z"/>
<path d="M2554 3023 c4 -7 -1 -24 -10 -37 -9 -14 -14 -31 -11 -38 3 -7 12 4
22 26 13 30 14 41 4 50 -9 8 -10 8 -5 -1z"/>
<path d="M3200 3020 c0 -5 7 -10 16 -10 8 0 12 5 9 10 -3 6 -10 10 -16 10 -5
0 -9 -4 -9 -10z"/>
<path d="M3366 3016 c3 -9 11 -16 16 -16 13 0 5 23 -10 28 -7 2 -10 -2 -6 -12z"/>
<path d="M2400 3012 c0 -7 -7 -12 -15 -12 -8 0 -15 -7 -15 -15 0 -19 16 -19
24 0 3 9 12 12 23 9 11 -4 14 -2 8 3 -5 4 -13 12 -17 17 -5 5 -8 4 -8 -2z"/>
<path d="M3403 3001 c-2 -21 34 -35 61 -25 9 3 16 1 16 -5 0 -6 8 -11 18 -11
15 0 15 -2 2 -11 -12 -9 -12 -10 3 -5 10 3 21 6 24 6 3 0 -12 12 -33 26 -23
16 -40 22 -42 15 -2 -6 -8 -11 -13 -11 -6 0 -7 5 -3 11 3 6 0 15 -7 20 -20 13
-25 11 -26 -10z"/>
<path d="M1653 3003 c-7 -2 -13 -9 -13 -14 0 -6 4 -8 9 -5 5 4 11 3 14 -1 2
-5 2 -3 1 4 -2 6 7 14 19 16 19 4 19 4 2 5 -11 0 -26 -2 -32 -5z"/>
<path d="M2016 2994 c-4 -9 -4 -19 -2 -21 8 -8 26 8 26 23 0 19 -16 18 -24 -2z"/>
<path d="M1919 2988 c-2 -25 3 -53 13 -65 6 -8 3 -15 -11 -23 -12 -6 -21 -18
-21 -26 0 -29 -34 -75 -52 -71 -9 3 -19 -1 -22 -8 -3 -8 2 -11 13 -8 15 4 17
-1 13 -26 -2 -19 0 -31 7 -31 6 0 11 13 11 29 0 19 8 35 21 45 14 9 22 27 23
48 2 30 4 33 30 30 25 -3 28 -1 23 17 -3 12 0 21 6 21 7 0 -1 13 -18 27 -16
15 -29 32 -27 40 2 7 0 13 -3 13 -3 0 -6 -6 -6 -12z"/>
<path d="M1961 2984 c0 -11 3 -14 6 -6 3 7 2 16 -1 19 -3 4 -6 -2 -5 -13z"/>
<path d="M2275 2963 c-11 -21 -22 -40 -25 -43 -15 -15 -60 -110 -52 -110 5 0
12 10 16 23 5 19 8 20 17 7 9 -13 10 -12 5 3 -8 26 22 83 37 68 8 -8 6 -15 -9
-26 -14 -10 -15 -14 -4 -15 11 0 11 -3 2 -12 -7 -7 -12 -19 -12 -27 1 -14 3
-13 14 2 21 28 39 21 20 -8 -9 -14 -12 -25 -8 -25 5 1 19 17 32 37 14 21 17
31 8 24 -9 -8 -16 -9 -16 -3 0 15 26 33 36 24 4 -4 2 1 -5 10 -11 15 -10 20 2
33 9 8 23 12 31 9 9 -3 16 -1 16 5 0 21 -39 11 -59 -15 -18 -23 -22 -24 -36
-11 -23 23 -19 39 8 32 17 -5 19 -4 7 4 -12 9 -13 14 -2 31 7 11 9 20 4 20 -4
0 -16 -17 -27 -37z"/>
<path d="M2804 2973 c-8 -30 6 -44 73 -73 64 -29 72 -58 31 -125 -20 -33 -22
-45 -9 -45 5 0 11 14 15 30 3 17 11 30 17 30 8 0 8 -4 -1 -15 -7 -8 -10 -21
-7 -29 3 -7 0 -19 -6 -25 -8 -8 -8 -11 0 -11 12 0 43 86 35 95 -12 12 -9 35 4
35 8 0 14 -4 14 -9 0 -5 13 -12 29 -16 16 -3 40 -16 53 -28 72 -66 133 -110
205 -148 l33 -17 -23 -15 c-18 -13 -19 -16 -5 -16 9 -1 18 -7 21 -13 2 -7 2
-3 0 10 -2 15 2 22 13 22 11 0 14 -5 10 -16 -4 -12 -1 -14 13 -9 27 8 38 -15
16 -32 -18 -12 -18 -13 2 -13 12 0 23 6 25 14 3 12 6 12 23 -1 18 -14 19 -15
1 -9 -15 5 -17 4 -7 -8 7 -8 21 -12 33 -8 13 3 19 1 15 -5 -4 -7 0 -9 11 -6
11 3 80 -38 191 -112 191 -129 201 -134 201 -111 0 9 -103 84 -257 187 -142
95 -275 187 -295 205 -20 18 -55 45 -77 60 -23 14 -38 30 -35 35 3 5 -2 6 -11
3 -10 -4 -24 2 -36 15 -11 11 -28 21 -37 21 -31 0 -61 29 -64 62 -2 17 -10 33
-18 36 -12 4 -13 2 -2 -9 6 -7 12 -19 12 -27 0 -7 -10 -2 -24 13 -15 16 -27
22 -31 15 -8 -13 -23 -5 -72 41 -54 50 -71 55 -79 22z"/>
<path d="M3187 2993 c-4 -3 -7 -16 -8 -27 -1 -19 -2 -18 -10 4 -7 21 -8 20 -4
-9 6 -43 25 -68 36 -49 13 19 10 35 -2 18 -8 -11 -9 -4 -5 28 6 42 5 48 -7 35z"/>
<path d="M3295 2980 c21 -11 40 -18 43 -16 5 6 -54 36 -70 36 -7 0 5 -9 27
-20z"/>
<path d="M3545 2990 c3 -5 10 -10 16 -10 5 0 9 5 9 10 0 6 -7 10 -16 10 -8 0
-12 -4 -9 -10z"/>
<path d="M2476 2967 c3 -10 9 -15 12 -12 3 3 0 11 -7 18 -10 9 -11 8 -5 -6z"/>
<path d="M2975 2969 c-4 -6 -5 -12 -2 -15 2 -3 7 2 10 11 7 17 1 20 -8 4z"/>
<path d="M2500 2954 c0 -8 5 -12 10 -9 6 3 10 10 10 16 0 5 -4 9 -10 9 -5 0
-10 -7 -10 -16z"/>
<path d="M1640 2940 c0 -11 4 -20 9 -20 5 0 11 9 14 20 3 13 0 20 -9 20 -8 0
-14 -9 -14 -20z"/>
<path d="M3213 2953 c9 -2 23 -2 30 0 6 3 -1 5 -18 5 -16 0 -22 -2 -12 -5z"/>
<path d="M1670 2929 c0 -6 -8 -18 -17 -25 -15 -11 -15 -13 -3 -13 8 0 22 5 31
12 14 10 14 14 3 25 -10 9 -14 10 -14 1z"/>
<path d="M2067 2933 c-4 -3 -7 -13 -7 -22 1 -13 3 -13 11 2 11 19 8 33 -4 20z"/>
<path d="M3250 2931 c0 -5 9 -13 20 -16 11 -3 20 -10 20 -14 0 -4 15 -6 33 -4
25 4 29 2 17 -6 -13 -10 -13 -13 3 -25 9 -7 17 -18 17 -24 0 -5 7 -13 16 -16
25 -9 30 -6 13 7 -9 7 -19 24 -22 39 l-7 26 32 -16 c18 -8 27 -17 20 -20 -19
-6 -14 -22 8 -22 22 0 27 -16 8 -22 -9 -3 -9 -6 0 -12 7 -4 12 -3 12 3 0 13
30 2 50 -17 12 -13 11 -14 -10 -8 -17 4 -14 1 9 -11 26 -14 35 -15 38 -5 7 19
23 4 17 -16 -2 -9 1 -7 7 6 10 19 9 26 -10 46 -13 14 -29 22 -37 19 -7 -3 -25
7 -39 22 -13 15 -39 38 -57 51 -36 27 -31 31 12 9 17 -9 30 -11 30 -6 0 12
-37 23 -90 26 -25 2 -47 3 -50 5 -20 8 -60 9 -60 1z"/>
<path d="M3545 2920 c3 -5 13 -10 21 -10 8 0 12 5 9 10 -3 6 -13 10 -21 10 -8
0 -12 -4 -9 -10z"/>
<path d="M2620 2900 c0 -5 -2 -15 -5 -23 -5 -10 4 -14 32 -14 21 0 31 1 22 4
-10 2 -15 11 -12 21 3 12 -2 18 -16 19 -12 1 -21 -2 -21 -7z"/>
<path d="M2790 2905 c0 -2 5 -15 11 -29 14 -30 29 -25 29 10 0 17 -5 24 -20
24 -11 0 -20 -2 -20 -5z"/>
<path d="M3220 2900 c0 -5 5 -10 10 -10 6 0 10 5 10 10 0 6 -4 10 -10 10 -5 0
-10 -4 -10 -10z"/>
<path d="M2040 2869 c0 -11 4 -18 10 -14 5 3 7 12 3 20 -7 21 -13 19 -13 -6z"/>
<path d="M2410 2880 c8 -5 20 -10 25 -10 6 0 3 5 -5 10 -8 5 -19 10 -25 10 -5
0 -3 -5 5 -10z"/>
<path d="M1755 2873 c-27 -7 -43 -23 -24 -24 7 0 21 -2 29 -4 10 -1 16 5 16
16 0 11 0 18 -1 18 0 -1 -9 -3 -20 -6z"/>
<path d="M3480 2865 c0 -8 5 -15 10 -15 6 0 10 7 10 15 0 8 -4 15 -10 15 -5 0
-10 -7 -10 -15z"/>
<path d="M1940 2855 c-7 -9 -11 -18 -8 -20 3 -3 11 1 18 10 7 9 11 18 8 20 -3
3 -11 -1 -18 -10z"/>
<path d="M2110 2860 c13 -9 11 -14 -12 -35 -32 -27 -36 -45 -11 -45 9 0 13 3
10 6 -4 4 2 19 12 33 33 48 34 51 9 51 -19 0 -20 -2 -8 -10z"/>
<path d="M3316 2855 c10 -8 24 -14 29 -14 6 0 1 6 -9 14 -11 8 -24 15 -30 15
-5 0 -1 -7 10 -15z"/>
<path d="M2070 2851 c0 -5 5 -13 10 -16 6 -3 10 -2 10 4 0 5 -4 13 -10 16 -5
3 -10 2 -10 -4z"/>
<path d="M3134 2847 c-8 -22 6 -39 24 -28 9 6 9 11 -2 27 -14 18 -15 18 -22 1z"/>
<path d="M3214 2845 c10 -8 24 -16 30 -19 7 -3 3 -11 -9 -21 -11 -9 -19 -21
-17 -26 3 -14 -15 -11 -22 4 -3 6 -5 3 -3 -8 1 -13 13 -21 35 -26 17 -3 32 -3
32 2 0 5 23 9 51 9 27 0 48 4 45 8 -6 9 -84 8 -93 -2 -4 -3 -13 -6 -21 -6 -12
0 -12 3 -2 15 7 8 21 15 32 15 10 0 16 5 13 10 -9 14 8 13 23 -2 6 -6 14 -9
17 -6 3 2 -22 19 -55 36 -64 34 -88 41 -56 17z"/>
<path d="M2038 2811 c-7 -12 -19 -21 -26 -21 -9 0 -12 -6 -8 -16 3 -9 6 -23 6
-31 0 -26 27 4 40 43 14 41 7 55 -12 25z"/>
<path d="M3200 2819 c0 -5 5 -7 10 -4 6 3 10 8 10 11 0 2 -4 4 -10 4 -5 0 -10
-5 -10 -11z"/>
<path d="M1670 2807 c0 -10 -4 -15 -10 -12 -12 8 -13 -5 -1 -23 7 -11 9 -11
14 2 4 10 13 13 24 10 14 -5 15 -4 4 4 -7 5 -17 16 -22 23 -7 11 -9 10 -9 -4z"/>
<path d="M1916 2803 c-6 -14 -5 -15 5 -6 7 7 10 15 7 18 -3 3 -9 -2 -12 -12z"/>
<path d="M2463 2807 c3 -9 1 -17 -6 -20 -7 -2 -5 -5 4 -9 18 -7 24 28 7 38 -7
5 -9 1 -5 -9z"/>
<path d="M3550 2810 c0 -5 5 -10 10 -10 6 0 10 5 10 10 0 6 -4 10 -10 10 -5 0
-10 -4 -10 -10z"/>
<path d="M1720 2799 c0 -5 5 -7 10 -4 6 3 10 8 10 11 0 2 -4 4 -10 4 -5 0 -10
-5 -10 -11z"/>
<path d="M2241 2794 c0 -11 3 -14 6 -6 3 7 2 16 -1 19 -3 4 -6 -2 -5 -13z"/>
<path d="M2970 2801 c0 -6 4 -13 10 -16 6 -3 7 1 4 9 -7 18 -14 21 -14 7z"/>
<path d="M2490 2792 c0 -11 51 -34 58 -27 4 3 -4 8 -16 12 -12 3 -22 9 -22 14
0 5 -4 9 -10 9 -5 0 -10 -4 -10 -8z"/>
<path d="M2170 2770 c-12 -8 -11 -10 8 -10 12 0 22 5 22 10 0 13 -11 13 -30 0z"/>
<path d="M1886 2754 c-4 -9 -4 -19 -1 -22 2 -3 7 3 11 12 4 9 4 19 1 22 -2 3
-7 -3 -11 -12z"/>
<path d="M2562 2754 c-13 -9 -30 -13 -40 -9 -21 8 -15 2 32 -30 21 -14 41 -24
44 -20 3 3 0 5 -6 5 -7 0 -12 5 -12 10 0 6 8 10 17 10 15 0 15 1 -2 13 -10 8
-15 19 -11 25 10 16 5 15 -22 -4z"/>
<path d="M2046 2734 c-9 -36 1 -43 14 -10 12 33 12 36 1 36 -5 0 -12 -12 -15
-26z"/>
<path d="M2211 2746 c-14 -8 -31 -12 -38 -9 -7 3 -13 0 -13 -6 0 -6 10 -12 23
-12 16 -1 18 -2 5 -6 -10 -2 -18 -11 -18 -20 0 -9 6 -13 15 -9 9 3 15 0 15
-10 0 -8 5 -12 11 -8 6 3 9 14 6 24 -5 21 11 53 24 45 5 -3 6 1 3 9 -3 9 -7
16 -8 16 0 -1 -12 -7 -25 -14z"/>
<path d="M2330 2733 c0 -16 5 -34 12 -41 16 -16 45 -15 52 1 3 6 3 2 0 -10 -3
-14 -1 -23 6 -23 6 0 10 10 8 22 -2 15 -13 24 -36 30 -23 6 -32 14 -28 23 3 8
1 17 -4 20 -6 4 -10 -7 -10 -22z"/>
<path d="M2614 2745 c11 -8 22 -12 25 -9 6 6 -19 24 -34 24 -5 -1 -1 -7 9 -15z"/>
<path d="M2950 2745 c0 -8 2 -15 4 -15 2 0 6 7 10 15 3 8 1 15 -4 15 -6 0 -10
-7 -10 -15z"/>
<path d="M3080 2732 c0 -39 47 -82 90 -82 27 0 25 -19 -2 -30 -13 -5 -18 -9
-11 -9 25 -2 43 12 43 34 0 18 -7 24 -36 30 -24 4 -38 13 -41 26 -3 10 -9 16
-14 13 -5 -3 -9 2 -9 10 0 9 -4 16 -10 16 -5 0 -10 -4 -10 -8z"/>
<path d="M3370 2730 c0 -5 5 -10 10 -10 6 0 10 5 10 10 0 6 -4 10 -10 10 -5 0
-10 -4 -10 -10z"/>
<path d="M1965 2720 c-3 -5 -1 -10 4 -10 6 0 11 5 11 10 0 6 -2 10 -4 10 -3 0
-8 -4 -11 -10z"/>
<path d="M3050 2720 c0 -5 5 -10 10 -10 6 0 10 5 10 10 0 6 -4 10 -10 10 -5 0
-10 -4 -10 -10z"/>
<path d="M3283 2705 c15 -14 33 -25 40 -25 7 1 1 7 -13 15 l-25 14 32 -2 c17
-1 29 -6 26 -12 -3 -5 0 -4 7 2 18 17 13 20 -45 26 l-50 6 28 -24z"/>
<path d="M1836 2713 c-10 -11 -6 -63 5 -63 7 0 8 12 4 33 -7 30 -6 31 9 12 13
-17 15 -17 16 -4 0 17 -23 32 -34 22z"/>
<path d="M3435 2709 c-11 -4 -14 -8 -7 -8 18 -1 15 -19 -5 -24 -16 -4 -16 -5
1 -6 14 -1 17 -7 14 -26 -3 -14 -1 -25 3 -25 5 0 9 5 9 11 0 5 4 8 9 4 17 -10
22 13 6 28 -8 9 -15 24 -15 34 1 17 2 17 15 -1 8 -11 15 -15 15 -9 0 19 -24
31 -45 22z"/>
<path d="M2651 2694 c13 -16 29 -19 29 -5 0 5 -9 11 -21 14 -16 4 -18 3 -8 -9z"/>
<path d="M1993 2653 c-1 -38 0 -43 7 -23 6 20 8 21 9 6 1 -11 3 -17 6 -15 7 7
-6 79 -14 79 -4 0 -8 -21 -8 -47z"/>
<path d="M1685 2680 c3 -5 8 -10 11 -10 2 0 4 5 4 10 0 6 -5 10 -11 10 -5 0
-7 -4 -4 -10z"/>
<path d="M2750 2680 c0 -5 7 -10 16 -10 8 0 12 5 9 10 -3 6 -10 10 -16 10 -5
0 -9 -4 -9 -10z"/>
<path d="M1968 2674 c-5 -4 -8 -16 -8 -26 0 -10 -4 -18 -10 -18 -5 0 -7 7 -4
15 4 8 4 15 1 15 -16 0 -12 -31 5 -47 12 -10 18 -12 13 -4 -4 8 -3 16 5 21 6
4 10 17 8 30 -1 12 -6 18 -10 14z"/>
<path d="M2121 2664 c0 -11 3 -14 6 -6 3 7 2 16 -1 19 -3 4 -6 -2 -5 -13z"/>
<path d="M2716 2666 c3 -7 -1 -20 -9 -28 -13 -12 -10 -14 19 -14 39 0 55 -11
34 -24 -20 -13 -10 -12 29 1 29 10 43 29 21 29 -5 0 -10 -5 -10 -10 0 -6 -6
-7 -17 -1 -10 5 -29 14 -43 20 -23 10 -23 11 -2 7 27 -5 29 10 3 24 -26 13
-31 13 -25 -4z"/>
<path d="M2419 2650 l-24 -21 29 6 c25 5 28 4 17 -8 -9 -12 -8 -15 6 -13 12 1
17 -5 15 -16 -2 -10 2 -18 8 -18 5 0 10 4 10 9 0 5 9 7 20 4 24 -6 51 -42 44
-57 -3 -6 2 -2 10 8 9 11 16 29 16 40 0 17 -2 18 -10 6 -5 -8 -10 -12 -11 -7
-1 4 -3 12 -4 17 -1 6 -3 13 -4 18 -1 4 -5 1 -9 -6 -5 -7 -16 -10 -26 -6 -13
5 -14 9 -5 20 10 12 8 13 -6 8 -14 -6 -16 -4 -10 7 4 8 4 11 0 6 -5 -4 -16 0
-25 8 -16 14 -19 13 -41 -5z"/>
<path d="M2666 2645 c4 -8 7 -15 9 -15 2 0 5 7 9 15 3 9 0 15 -9 15 -9 0 -12
-6 -9 -15z"/>
<path d="M3400 2650 c0 -5 7 -10 16 -10 8 0 12 5 9 10 -3 6 -10 10 -16 10 -5
0 -9 -4 -9 -10z"/>
<path d="M1790 2623 c-12 -26 -13 -27 -21 -8 -6 14 -7 8 -3 -19 6 -40 28 -73
38 -57 4 5 2 11 -4 13 -5 2 -7 19 -3 41 4 28 10 37 21 32 12 -4 13 -3 2 10
-16 19 -15 20 -30 -12z"/>
<path d="M2135 2631 c-3 -5 -1 -12 4 -15 5 -3 11 1 15 9 6 16 -9 21 -19 6z"/>
<path d="M2833 2624 c0 -16 23 -19 31 -5 3 5 -2 11 -12 13 -11 3 -19 0 -19 -8z"/>
<path d="M2101 2622 c0 -8 6 -26 15 -42 18 -29 13 -100 -6 -100 -12 0 -12 3 0
35 8 21 6 31 -9 51 l-19 24 2 -24 c0 -13 4 -22 9 -19 4 2 7 -3 7 -11 0 -8 -4
-17 -9 -20 -15 -9 0 -47 17 -44 14 3 23 23 47 98 7 22 6 23 -9 11 -14 -12 -16
-11 -16 3 0 9 -4 16 -9 16 -5 0 -12 8 -14 18 -3 9 -5 11 -6 4z"/>
<path d="M3095 2610 c11 -5 27 -9 35 -9 9 0 8 4 -5 9 -11 5 -27 9 -35 9 -9 0
-8 -4 5 -9z"/>
<path d="M1927 2568 c3 -24 10 -51 15 -62 9 -17 11 -16 24 10 8 15 12 32 10
38 -3 6 -8 1 -11 -11 -11 -36 -28 -27 -21 11 4 23 2 37 -8 45 -12 10 -13 5 -9
-31z"/>
<path d="M2260 2600 c0 -5 5 -10 11 -10 5 0 7 5 4 10 -3 6 -8 10 -11 10 -2 0
-4 -4 -4 -10z"/>
<path d="M3166 2601 c-12 -5 -16 -10 -9 -14 13 -8 43 2 43 14 0 10 -8 10 -34
0z"/>
<path d="M1811 2574 c0 -11 3 -14 6 -6 3 7 2 16 -1 19 -3 4 -6 -2 -5 -13z"/>
<path d="M2871 2576 c-8 -10 -9 -16 -1 -21 6 -3 7 -11 4 -17 -4 -6 -2 -8 4 -5
5 4 8 17 4 29 -3 14 -2 19 6 14 7 -4 12 -2 12 3 0 15 -15 14 -29 -3z"/>
<path d="M2263 2573 c-29 -5 -30 -23 -2 -23 11 0 30 -5 42 -11 19 -9 20 -8 6
3 -9 7 -14 19 -12 26 3 6 1 11 -4 11 -4 -1 -18 -4 -30 -6z"/>
<path d="M2610 2565 c8 -9 3 -16 -21 -25 l-31 -13 23 -18 c13 -10 39 -21 58
-24 26 -5 31 -9 20 -16 -10 -6 -10 -9 -1 -9 15 0 54 38 44 43 -4 2 -19 7 -33
11 -15 3 -29 12 -32 20 -4 11 -1 13 11 9 9 -4 20 -11 23 -16 4 -5 14 -7 24 -5
11 2 -2 12 -39 30 -31 14 -52 20 -46 13z m20 -45 c0 -5 -9 -10 -21 -10 -11 0
-17 5 -14 10 3 6 13 10 21 10 8 0 14 -4 14 -10z"/>
<path d="M3026 2571 c-3 -5 1 -11 9 -14 9 -4 12 -1 8 9 -6 16 -10 17 -17 5z"/>
<path d="M3250 2570 c0 -5 5 -10 10 -10 6 0 10 5 10 10 0 6 -4 10 -10 10 -5 0
-10 -4 -10 -10z"/>
<path d="M2500 2561 c0 -5 7 -11 15 -15 8 -3 15 -1 15 3 0 5 -7 11 -15 15 -8
3 -15 1 -15 -3z"/>
<path d="M3068 2563 c7 -3 16 -2 19 1 4 3 -2 6 -13 5 -11 0 -14 -3 -6 -6z"/>
<path d="M3118 2553 c7 -3 16 -2 19 1 4 3 -2 6 -13 5 -11 0 -14 -3 -6 -6z"/>
<path d="M1897 2523 c-4 -3 -7 -13 -7 -22 1 -13 3 -13 11 2 11 19 8 33 -4 20z"/>
<path d="M2330 2520 c0 -5 7 -10 16 -10 8 0 12 5 9 10 -3 6 -10 10 -16 10 -5
0 -9 -4 -9 -10z"/>
<path d="M3226 2519 c2 -4 -4 -12 -13 -18 -17 -10 -16 -10 2 -10 11 0 29 4 40
8 11 5 33 4 48 -2 18 -6 32 -6 38 0 6 6 -14 13 -55 19 -36 6 -63 7 -60 3z"/>
<path d="M2930 2510 c0 -5 5 -10 10 -10 6 0 10 5 10 10 0 6 -4 10 -10 10 -5 0
-10 -4 -10 -10z"/>
<path d="M2363 2484 c-8 -18 -7 -24 4 -28 19 -8 63 3 63 15 0 12 -17 11 -25
-1 -3 -5 -13 -10 -20 -10 -12 0 -12 3 2 19 9 11 22 17 29 14 8 -3 14 0 14 5 0
6 -13 10 -28 10 -19 -1 -31 -8 -39 -24z"/>
<path d="M2725 2489 l-20 -20 29 11 c23 8 31 8 37 -2 4 -7 12 -9 16 -4 7 7
-23 37 -36 35 -3 0 -15 -9 -26 -20z"/>
<path d="M1917 2493 c-11 -10 -8 -43 3 -43 6 0 10 11 10 25 0 26 -2 29 -13 18z"/>
<path d="M3405 2489 c-4 -6 -5 -12 -2 -15 2 -3 7 2 10 11 7 17 1 20 -8 4z"/>
<path d="M3245 2479 c-4 -6 2 -13 14 -16 33 -8 25 -20 -10 -15 -22 3 -30 1
-25 -7 11 -17 54 -13 64 5 7 13 13 14 31 5 11 -7 21 -16 21 -21 0 -6 5 -10 12
-10 6 0 1 11 -12 25 -15 16 -35 25 -54 25 -24 0 -27 3 -16 10 13 8 13 10 -2
10 -9 0 -20 -5 -23 -11z"/>
<path d="M1871 2445 c-7 -20 -10 -39 -7 -42 3 -4 6 1 6 10 0 10 5 17 11 17 6
0 8 -9 4 -22 -5 -20 -4 -20 5 -6 7 11 8 29 3 49 l-8 31 -14 -37z"/>
<path d="M2051 2465 c0 -11 4 -27 9 -35 7 -11 10 -11 10 -2 0 7 5 10 10 7 6
-3 10 -2 10 4 0 15 -20 24 -21 9 -1 -7 -5 -2 -9 12 -7 21 -8 21 -9 5z"/>
<path d="M3180 2460 c-11 -11 -25 -20 -31 -20 -20 0 1 -18 26 -23 21 -3 25 -1
20 11 -4 10 3 23 17 34 19 15 20 18 6 18 -10 0 -27 -9 -38 -20z"/>
<path d="M3348 2468 c9 -9 15 -9 24 0 9 9 7 12 -12 12 -19 0 -21 -3 -12 -12z"/>
<path d="M2480 2459 c0 -5 5 -7 10 -4 6 3 10 8 10 11 0 2 -4 4 -10 4 -5 0 -10
-5 -10 -11z"/>
<path d="M2440 2456 c0 -2 7 -6 15 -10 8 -3 15 -1 15 4 0 6 -7 10 -15 10 -8 0
-15 -2 -15 -4z"/>
<path d="M2690 2450 c0 -5 5 -10 10 -10 6 0 10 5 10 10 0 6 -4 10 -10 10 -5 0
-10 -4 -10 -10z"/>
<path d="M2760 2450 c0 -5 14 -14 30 -22 27 -12 34 -20 28 -33 -2 -2 6 -11 16
-18 17 -12 22 -12 33 -1 8 7 13 16 13 20 -1 4 4 10 10 14 9 5 9 9 1 14 -6 4
-11 2 -11 -3 0 -6 -11 -10 -25 -9 -13 1 -22 4 -20 6 2 3 0 12 -5 22 -9 17 -70
26 -70 10z"/>
<path d="M2530 2431 c13 -11 28 -17 32 -15 3 2 9 0 12 -5 10 -15 -63 -36 -77
-22 -8 8 -6 11 6 11 9 0 17 5 17 10 0 14 -11 12 -33 -4 -17 -13 -15 -15 17
-36 20 -12 40 -19 46 -15 5 3 10 1 10 -4 0 -6 5 -11 12 -11 9 0 9 3 0 12 -7 7
-12 18 -12 25 0 20 21 15 27 -6 3 -11 16 -22 29 -25 25 -7 32 -31 12 -40 -7
-3 -2 -3 12 0 14 3 38 0 53 -5 22 -9 27 -8 27 5 0 8 -4 13 -9 9 -6 -3 -15 3
-21 12 -8 13 -13 14 -16 6 -3 -7 -10 -13 -15 -13 -6 0 -7 5 -4 10 7 11 -18 40
-34 40 -6 0 -11 5 -11 10 0 6 -8 10 -17 11 -12 0 -13 2 -5 6 7 3 19 -1 28 -7
8 -7 17 -10 20 -7 6 5 -111 67 -125 67 -3 0 5 -9 19 -19z m20 -61 c0 -5 -4
-10 -10 -10 -5 0 -10 5 -10 10 0 6 5 10 10 10 6 0 10 -4 10 -10z"/>
<path d="M2190 2433 c0 -15 18 -35 23 -27 3 5 -1 15 -9 22 -8 7 -14 9 -14 5z"/>
<path d="M2401 2436 c2 -2 15 -9 29 -16 23 -12 24 -12 11 3 -7 10 -20 17 -29
17 -8 0 -13 -2 -11 -4z"/>
<path d="M2720 2436 c0 -2 7 -7 16 -10 8 -3 12 -2 9 4 -6 10 -25 14 -25 6z"/>
<path d="M3290 2416 c0 -9 -8 -12 -26 -8 -17 3 -25 1 -21 -5 4 -6 17 -11 29
-11 13 -1 32 -3 42 -4 10 -2 21 4 24 12 5 13 3 13 -11 1 -15 -12 -17 -11 -17
8 0 11 -4 21 -10 21 -5 0 -10 -6 -10 -14z"/>
<path d="M2080 2411 c0 -7 -5 -9 -10 -6 -7 4 -8 -3 -4 -20 4 -17 2 -30 -6 -35
-6 -4 -10 -18 -8 -31 3 -18 8 -10 22 34 10 32 15 61 12 64 -3 4 -6 1 -6 -6z"/>
<path d="M2967 2414 c-22 -22 22 -34 53 -14 13 8 13 10 -2 10 -9 0 -23 2 -30
5 -8 3 -17 2 -21 -1z"/>
<path d="M2022 2388 c-18 -35 -32 -89 -21 -83 5 4 9 15 9 27 0 13 5 18 13 15
10 -4 13 2 9 19 -2 14 0 24 7 24 6 0 11 -5 11 -12 0 -6 2 -9 5 -6 7 7 -5 38
-14 38 -4 0 -13 -10 -19 -22z"/>
<path d="M2928 2403 c7 -3 16 -2 19 1 4 3 -2 6 -13 5 -11 0 -14 -3 -6 -6z"/>
<path d="M2173 2374 c-12 -26 -12 -26 7 -9 11 10 17 22 14 26 -7 12 -7 12 -21
-17z"/>
<path d="M2916 2382 c-3 -6 8 -14 26 -17 18 -4 36 -13 40 -19 9 -14 68 -15 68
-1 0 6 -19 15 -42 22 -24 6 -53 14 -64 18 -12 4 -25 2 -28 -3z"/>
<path d="M2306 2339 c-14 -21 -18 -22 -27 -9 -10 13 -10 13 -6 0 3 -9 -1 -24
-9 -35 -21 -29 -17 -38 7 -14 13 13 29 19 41 16 14 -4 18 -2 14 9 -3 8 -2 14
2 14 5 0 17 7 28 16 19 15 19 15 0 9 -11 -3 -23 -1 -26 6 -5 7 -13 3 -24 -12z"/>
<path d="M2724 2346 c3 -18 16 -36 27 -36 6 0 7 5 4 10 -3 6 -1 10 5 10 17 0
3 17 -19 23 -11 2 -18 0 -17 -7z"/>
<path d="M3208 2335 c-4 -17 -1 -25 8 -25 8 0 14 11 14 25 0 14 -4 25 -9 25
-5 0 -11 -11 -13 -25z"/>
<path d="M3250 2356 c0 -2 9 -6 20 -9 11 -3 20 -1 20 4 0 5 -9 9 -20 9 -11 0
-20 -2 -20 -4z"/>
<path d="M2020 2305 c0 -14 4 -25 8 -25 4 0 9 11 10 25 1 14 -3 25 -8 25 -6 0
-10 -11 -10 -25z"/>
<path d="M2766 2301 c-22 -17 -44 -28 -54 -25 -14 5 -13 2 2 -10 25 -20 46
-21 46 -1 0 8 15 19 33 24 17 5 27 10 20 10 -7 1 -10 8 -7 16 9 21 2 19 -40
-14z"/>
<path d="M2235 2310 c-3 -6 1 -7 9 -4 18 7 21 14 7 14 -6 0 -13 -4 -16 -10z"/>
<path d="M2880 2300 c0 -5 -9 -10 -20 -10 -11 0 -20 -3 -20 -7 0 -14 17 -34
26 -32 5 1 15 1 21 0 18 -1 -17 -41 -37 -42 -10 0 -9 -3 5 -8 19 -8 47 7 39
21 -2 4 5 9 16 13 27 9 25 22 -6 29 -19 5 -24 11 -19 26 4 11 4 20 1 20 -3 0
-6 -4 -6 -10z"/>
<path d="M3025 2300 c11 -5 27 -9 35 -9 9 0 8 4 -5 9 -11 5 -27 9 -35 9 -9 0
-8 -4 5 -9z"/>
<path d="M2660 2290 c20 -13 33 -13 25 0 -3 6 -14 10 -23 10 -15 0 -15 -2 -2
-10z"/>
<path d="M2204 2279 c-5 -8 -3 -9 6 -4 10 6 12 3 8 -13 -6 -21 4 -35 30 -38 6
-1 10 2 6 7 -3 5 -10 7 -15 3 -6 -3 -9 6 -7 22 3 28 -15 44 -28 23z"/>
<path d="M2424 2275 c-10 -8 -14 -15 -8 -15 6 0 17 7 24 15 16 19 9 19 -16 0z"/>
<path d="M2908 2283 c7 -3 16 -2 19 1 4 3 -2 6 -13 5 -11 0 -14 -3 -6 -6z"/>
<path d="M3088 2283 c7 -3 16 -2 19 1 4 3 -2 6 -13 5 -11 0 -14 -3 -6 -6z"/>
<path d="M1985 2270 c3 -5 8 -10 11 -10 2 0 4 5 4 10 0 6 -5 10 -11 10 -5 0
-7 -4 -4 -10z"/>
<path d="M2286 2263 c-6 -14 -5 -15 5 -6 7 7 10 15 7 18 -3 3 -9 -2 -12 -12z"/>
<path d="M2974 2264 c11 -8 33 -14 50 -14 39 0 31 7 -24 19 -40 9 -43 8 -26
-5z"/>
<path d="M2436 2245 c-28 -22 -53 -25 -41 -4 3 5 -1 6 -9 3 -11 -4 -13 -11 -7
-22 6 -11 4 -20 -5 -27 -9 -6 -16 -19 -18 -29 -1 -9 -9 -21 -16 -26 -8 -5 -11
-13 -6 -17 5 -4 11 -2 13 5 3 6 11 12 18 12 8 0 17 10 20 23 8 24 44 67 56 67
5 0 6 -7 3 -15 -4 -8 -1 -15 6 -15 8 0 10 9 6 24 -4 15 -1 26 7 29 6 2 10 7 7
10 -3 3 -18 -5 -34 -18z"/>
<path d="M2017 2249 c7 -7 15 -10 18 -7 3 3 -2 9 -12 12 -14 6 -15 5 -6 -5z"/>
<path d="M2170 2247 c0 -10 -10 -21 -22 -26 -14 -5 -17 -10 -10 -15 17 -10 52
28 41 45 -7 11 -9 10 -9 -4z"/>
<path d="M3032 2231 c-11 -7 -11 -9 0 -14 9 -3 15 1 15 9 0 8 -1 14 -1 14 -1
0 -7 -4 -14 -9z"/>
<path d="M3093 2228 c-25 -33 -25 -38 1 -27 14 7 27 18 30 25 7 17 -18 18 -31
2z"/>
<path d="M2176 2214 c-9 -8 -16 -20 -16 -26 0 -7 -5 -6 -14 1 -9 8 -16 8 -20
2 -9 -13 11 -24 31 -17 8 4 21 2 28 -4 8 -7 17 -3 31 13 10 12 12 16 4 10 -8
-7 -21 -13 -29 -13 -12 0 -11 3 2 18 29 32 13 47 -17 16z"/>
<path d="M2820 2219 c0 -5 5 -7 10 -4 6 3 10 8 10 11 0 2 -4 4 -10 4 -5 0 -10
-5 -10 -11z"/>
<path d="M2921 2221 c-10 -7 -10 -10 -1 -16 7 -4 15 -3 19 2 3 6 13 13 21 16
11 4 9 6 -5 6 -11 0 -26 -3 -34 -8z"/>
<path d="M2340 2205 c-15 -8 -19 -14 -10 -14 18 -1 46 16 40 23 -3 2 -16 -2
-30 -9z"/>
<path d="M2581 2191 c-13 -10 -21 -23 -17 -29 3 -5 -1 -13 -10 -16 -8 -3 -12
-2 -9 4 4 6 -4 9 -17 7 -13 -1 -26 -10 -30 -20 -4 -10 -12 -16 -16 -13 -4 3
-20 -5 -36 -17 l-27 -22 36 -2 c29 -1 35 2 35 18 0 10 7 19 15 19 11 0 15 -8
13 -26 -4 -39 17 -40 29 -2 7 24 14 32 29 31 10 -1 13 0 7 3 -23 10 -14 26 10
19 21 -7 22 -7 2 8 -19 15 -19 15 5 36 31 25 14 27 -19 2z"/>
<path d="M2956 2202 c-2 -4 6 -9 19 -10 13 -1 27 3 30 8 3 6 -5 10 -19 10 -14
0 -27 -4 -30 -8z"/>
<path d="M2410 2175 c-7 -9 -11 -17 -9 -20 3 -2 10 5 17 15 14 24 10 26 -8 5z"/>
<path d="M2285 2170 c-3 -5 -1 -10 4 -10 6 0 11 5 11 10 0 6 -2 10 -4 10 -3 0
-8 -4 -11 -10z"/>
<path d="M2945 2170 c27 -12 35 -12 35 0 0 6 -12 10 -27 9 -25 0 -26 -1 -8 -9z"/>
<path d="M2247 2147 c-15 -10 -12 -12 20 -14 21 -1 31 1 23 4 -8 3 -18 10 -21
14 -3 5 -13 3 -22 -4z"/>
<path d="M2750 2130 c8 -5 22 -9 30 -9 10 0 8 3 -5 9 -27 12 -43 12 -25 0z"/>
<path d="M2355 2110 c-10 -11 -13 -20 -8 -20 13 0 38 29 31 35 -3 3 -13 -4
-23 -15z"/>
<path d="M2687 2124 c-9 -10 21 -36 33 -29 6 4 5 12 -4 21 -16 16 -20 17 -29
8z"/>
<path d="M2300 2110 c-12 -8 -11 -10 8 -10 12 0 22 5 22 10 0 13 -11 13 -30 0z"/>
<path d="M2653 2086 c-4 -8 -19 -16 -33 -19 -14 -2 -1 -5 27 -6 52 -1 53 -1
36 19 -21 24 -20 24 -30 6z"/>
<path d="M2760 2091 c0 -5 9 -7 20 -4 11 3 20 7 20 9 0 2 -9 4 -20 4 -11 0
-20 -4 -20 -9z"/>
<path d="M2720 2080 c0 -5 5 -10 10 -10 6 0 10 5 10 10 0 6 -4 10 -10 10 -5 0
-10 -4 -10 -10z"/>
<path d="M1954 1999 c-40 -11 -64 -39 -74 -86 -19 -80 21 -153 92 -168 57 -13
86 -85 52 -133 -28 -40 -84 -23 -84 25 0 20 -5 23 -35 23 -29 0 -35 -4 -35
-21 0 -45 30 -88 75 -105 51 -19 82 -14 121 20 24 20 28 32 32 90 6 95 -6 118
-86 158 -61 30 -67 36 -70 66 -7 70 60 96 88 35 12 -25 21 -33 43 -33 24 0 27
3 27 36 0 26 -8 43 -29 65 -16 16 -36 29 -44 29 -9 0 -21 2 -29 4 -7 2 -27 0
-44 -5z"/>
<path d="M2400 1970 c0 -28 3 -30 35 -30 33 0 35 2 33 30 -2 27 -6 30 -35 30
-30 0 -33 -3 -33 -30z"/>
<path d="M2920 1924 c0 -69 -2 -75 -17 -69 -40 17 -69 16 -93 -3 -24 -19 -25
-27 -28 -134 -4 -138 9 -182 57 -193 16 -3 38 -2 47 3 9 5 36 7 60 4 l44 -5 0
237 0 236 -35 0 -35 0 0 -76z m-12 -136 c15 -15 16 -152 2 -179 -15 -27 -39
-24 -50 7 -13 34 -13 140 0 165 12 22 30 25 48 7z"/>
<path d="M3890 1970 c0 -28 3 -30 35 -30 33 0 35 2 33 30 -2 27 -6 30 -35 30
-30 0 -33 -3 -33 -30z"/>
<path d="M4020 1765 l0 -235 35 0 c35 0 35 0 35 46 0 76 31 111 50 57 33 -91
42 -103 77 -103 18 0 33 2 33 5 0 3 -20 48 -44 99 l-44 94 34 59 c41 72 42 85
7 81 -21 -2 -35 -17 -67 -71 l-41 -67 -3 135 -3 135 -34 0 -35 0 0 -235z"/>
<path d="M5540 1765 l0 -236 33 3 32 3 5 130 5 130 25 0 25 0 3 -132 3 -133
34 0 35 0 0 150 c0 142 -1 150 -22 170 -22 21 -42 22 -93 5 -19 -6 -20 -2 -20
67 l0 73 -32 3 -33 3 0 -236z"/>
<path d="M5790 1765 l0 -235 35 0 c35 0 35 0 35 46 0 45 13 84 29 84 4 0 20
-29 36 -65 26 -62 29 -65 61 -65 19 0 34 2 34 5 0 3 -20 48 -44 99 l-44 94 34
59 c41 72 42 85 7 81 -21 -2 -35 -17 -67 -71 l-41 -67 -3 135 -3 135 -34 0
-35 0 0 -235z"/>
<path d="M2198 1853 c-22 -14 -48 -57 -48 -79 0 -2 16 -4 35 -4 19 0 35 4 35
9 0 16 40 23 55 11 8 -7 15 -23 15 -35 0 -19 -7 -23 -49 -29 -65 -9 -91 -39
-91 -108 0 -39 5 -54 25 -73 28 -29 51 -31 84 -9 15 11 25 13 30 6 6 -10 32
-16 59 -13 21 2 16 237 -6 281 -28 58 -90 76 -144 43z m92 -200 c-1 -54 -29
-85 -56 -62 -17 14 -18 66 -1 72 29 12 57 7 57 -10z"/>
<path d="M2400 1700 l0 -170 33 0 34 0 2 143 c3 177 -1 197 -40 197 l-29 0 0
-170z"/>
<path d="M2537 1863 c-4 -3 -7 -80 -7 -170 l0 -163 35 0 35 0 0 119 c0 133 4
151 31 151 29 0 39 -40 39 -161 l0 -109 34 0 34 0 1 128 c0 148 -11 192 -52
207 -22 7 -35 6 -57 -7 -24 -14 -29 -14 -34 -2 -5 14 -47 19 -59 7z"/>
<path d="M3440 1863 c-29 -11 -60 -47 -60 -70 0 -19 5 -23 29 -23 16 0 34 7
41 15 22 27 55 14 58 -21 3 -30 1 -32 -38 -37 -62 -8 -88 -29 -95 -80 -14 -92
42 -151 107 -114 15 9 28 12 28 7 0 -6 16 -10 35 -10 l35 0 0 130 c0 79 -5
139 -12 155 -19 43 -80 65 -128 48z m70 -221 c0 -61 -52 -83 -66 -27 -8 31 10
55 42 55 20 0 24 -5 24 -28z"/>
<path d="M3636 1854 c-3 -9 -6 -85 -6 -170 l0 -154 35 0 35 0 0 116 c0 121 8
154 39 154 27 0 31 -18 31 -151 l0 -119 35 0 35 0 0 134 c0 149 -7 181 -45
198 -21 9 -32 8 -60 -5 -30 -14 -35 -15 -35 -2 0 21 -56 20 -64 -1z"/>
<path d="M3890 1700 l0 -170 35 0 35 0 0 139 c0 181 -4 201 -41 201 l-29 0 0
-170z"/>
<path d="M4598 1865 c-3 -3 13 -79 37 -168 l42 -162 33 0 c30 0 35 4 41 30 4
17 21 84 38 149 38 145 38 156 9 156 -37 0 -43 -11 -62 -100 -10 -47 -21 -89
-24 -95 -6 -9 -21 48 -39 145 -3 19 -11 38 -17 42 -13 9 -50 10 -58 3z"/>
<path d="M4900 1859 c-30 -12 -59 -47 -60 -71 0 -14 8 -18 35 -18 19 0 35 4
35 9 0 5 10 13 22 17 24 7 48 -17 48 -48 0 -13 -8 -18 -29 -18 -73 0 -113 -40
-113 -115 0 -75 56 -114 110 -79 18 12 27 13 30 6 2 -7 17 -12 33 -12 l29 0 0
136 c0 74 -5 144 -10 155 -12 22 -61 49 -87 48 -10 0 -29 -5 -43 -10z m80
-213 c0 -13 -8 -34 -18 -46 -25 -30 -52 -18 -52 25 0 34 9 43 48 44 17 1 22
-5 22 -23z"/>
<path d="M5100 1700 l0 -170 35 0 35 0 0 113 c0 124 6 142 55 155 24 7 31 14
33 40 4 37 -7 40 -52 17 -27 -14 -31 -14 -38 0 -5 8 -22 15 -38 15 l-30 0 0
-170z"/>
<path d="M5270 1863 c0 -4 9 -36 20 -72 60 -197 70 -234 70 -250 0 -34 -22
-80 -41 -86 -13 -4 -19 -16 -19 -36 0 -24 4 -29 24 -29 14 0 36 10 51 23 21
18 33 54 75 220 28 109 50 207 50 218 0 13 -7 19 -22 19 -37 0 -43 -11 -62
-102 -10 -49 -22 -88 -25 -88 -8 0 -41 133 -41 161 0 9 -7 20 -16 23 -21 8
-64 8 -64 -1z"/>
<path d="M6098 1853 c-25 -16 -48 -51 -48 -73 0 -6 16 -10 35 -10 19 0 35 4
35 9 0 16 40 23 55 11 8 -7 15 -23 15 -35 0 -19 -7 -23 -47 -28 -65 -7 -93
-40 -93 -108 0 -40 5 -55 25 -74 28 -29 51 -31 84 -9 18 13 25 14 31 5 4 -7
20 -11 36 -9 l29 3 3 95 c4 122 -4 174 -31 206 -29 33 -91 42 -129 17z m92
-200 c-1 -54 -29 -85 -56 -62 -17 14 -18 66 -1 72 29 12 57 7 57 -10z"/>
<path d="M3023 1458 c3 -10 45 -13 167 -13 122 0 164 3 168 13 3 9 -35 12
-168 12 -133 0 -171 -3 -167 -12z"/>
<path d="M4250 1455 c0 -13 22 -15 162 -13 118 2 162 6 166 16 3 9 -34 12
-162 12 -142 0 -166 -2 -166 -15z"/>
<path d="M3020 1270 c-8 -15 -8 -20 1 -20 6 0 9 -9 6 -20 -3 -11 -2 -20 2 -20
14 0 31 25 31 46 0 29 -27 39 -40 14z"/>
<path d="M2840 1170 l0 -110 33 0 c54 0 66 22 64 118 -3 92 -9 102 -64 102
l-33 0 0 -110z m67 60 c4 -21 -13 -44 -26 -36 -6 4 -11 18 -11 32 0 19 5 25
17 22 10 -2 19 -10 20 -18z m1 -93 c4 -21 -16 -49 -29 -41 -5 3 -9 19 -9 35 0
24 4 30 17 27 10 -2 19 -11 21 -21z"/>
<path d="M3752 1268 c6 -18 28 -21 28 -4 0 9 -7 16 -16 16 -9 0 -14 -5 -12
-12z"/>
<path d="M3940 1265 c0 -8 7 -15 15 -15 8 0 15 7 15 15 0 8 -7 15 -15 15 -8 0
-15 -7 -15 -15z"/>
<path d="M3136 1199 c-11 -16 -12 -28 -4 -50 7 -20 7 -39 -1 -59 -8 -25 -7
-30 5 -30 8 0 21 14 28 30 14 33 26 30 26 -7 0 -14 6 -23 15 -23 12 0 15 16
15 80 l0 80 -34 0 c-24 0 -39 -7 -50 -21z m49 -29 c0 -7 -6 -15 -12 -17 -8 -3
-13 4 -13 17 0 13 5 20 13 18 6 -3 12 -11 12 -18z"/>
<path d="M3296 1204 c-21 -21 -11 -37 15 -23 27 14 37 3 21 -21 -10 -16 -10
-24 0 -40 15 -24 6 -35 -20 -21 -25 13 -34 4 -21 -20 12 -22 52 -25 72 -5 17
18 16 108 -3 130 -16 20 -44 20 -64 0z"/>
<path d="M3440 1201 c-12 -24 4 -38 25 -21 9 7 15 8 20 0 9 -15 -3 -30 -25
-30 -22 0 -36 -37 -25 -70 6 -18 13 -21 48 -18 l42 3 3 59 c2 44 -1 63 -14 77
-22 25 -60 24 -74 0z m50 -91 c0 -21 -15 -27 -25 -10 -7 12 2 30 16 30 5 0 9
-9 9 -20z"/>
<path d="M3594 1206 c-3 -7 -4 -42 -2 -77 2 -48 7 -64 18 -64 9 0 14 10 15 30
0 43 29 40 33 -2 2 -21 9 -33 18 -33 11 0 14 17 14 80 0 64 -3 80 -15 80 -10
0 -15 -10 -15 -28 0 -34 -7 -43 -26 -35 -8 3 -14 18 -14 34 0 30 -17 40 -26
15z"/>
<path d="M3754 1206 c-10 -26 1 -139 14 -144 9 -3 12 17 12 77 0 49 -4 81 -10
81 -6 0 -13 -6 -16 -14z"/>
<path d="M3940 1140 c0 -64 3 -80 15 -80 12 0 15 16 15 80 0 64 -3 80 -15 80
-12 0 -15 -16 -15 -80z"/>
<path d="M4050 1140 c0 -64 3 -80 15 -80 12 0 15 14 15 65 0 58 2 65 20 65 11
0 20 7 20 15 0 10 -11 15 -35 15 l-35 0 0 -80z"/>
<path d="M4170 1105 c0 -98 2 -114 15 -109 8 4 15 19 15 34 0 24 5 29 28 32
26 3 27 5 30 72 3 77 -2 86 -55 86 l-33 0 0 -115z m58 29 c-2 -22 -7 -39 -13
-39 -12 0 -19 60 -10 83 10 28 27 -3 23 -44z"/>
<path d="M4342 1208 c-12 -12 -17 -38 -6 -38 3 0 14 5 25 10 16 9 19 7 19 -9
0 -12 -8 -21 -21 -23 -29 -4 -43 -29 -35 -61 6 -24 11 -26 51 -25 l45 1 0 62
c0 47 -4 66 -18 78 -22 20 -43 22 -60 5z m41 -103 c-6 -16 -16 -19 -26 -8 -9
8 13 34 24 28 4 -3 6 -12 2 -20z"/>
<path d="M4490 1141 l0 -81 70 0 70 0 0 81 c0 60 -3 80 -12 77 -8 -3 -14 -28
-16 -66 -4 -81 -20 -80 -24 1 -2 47 -7 62 -18 62 -11 0 -16 -15 -18 -62 -4
-81 -20 -82 -24 -1 -2 38 -8 63 -15 66 -10 3 -13 -17 -13 -77z"/>
<path d="M4700 1140 c0 -64 3 -80 15 -80 10 0 15 10 15 30 0 17 4 30 9 30 5 0
14 -13 20 -30 5 -17 17 -30 26 -30 13 0 15 5 8 23 -10 27 -9 84 2 116 11 33
-16 23 -33 -12 -17 -36 -32 -34 -32 3 0 20 -5 30 -15 30 -12 0 -15 -16 -15
-80z"/>
<path d="M4860 1140 c0 -71 2 -81 17 -78 9 2 22 19 28 38 10 27 14 31 20 19 3
-10 5 -25 3 -35 -2 -12 3 -19 12 -19 23 0 22 148 -2 153 -11 2 -20 -9 -29 -35
l-13 -38 -6 34 c-3 19 -11 36 -17 39 -10 3 -13 -17 -13 -78z"/>
</g>
</svg>
